<svg width="604" height="105" viewBox="0 0 604 105" fill="none" xmlns="http://www.w3.org/2000/svg">
<path fill-rule="evenodd" clip-rule="evenodd" d="M0 31.3675C0 25.094 1.21595 19.62 3.64784 14.9457C6.07973 10.2098 9.8289 6.55027 14.8953 3.96706C19.9618 1.32235 26.3117 0 33.9452 0C41.5111 0 47.8272 1.32235 52.8937 3.96706C57.9601 6.55027 61.7093 10.1483 64.1412 14.7612C66.5731 19.374 67.789 24.6942 67.789 30.7217C67.789 36.9952 66.3028 42.4076 63.3305 46.959C60.3582 51.5103 55.8998 54.8316 49.9551 56.9227H69.005V63.0117H33.9452C22.5963 63.0117 14.0847 60.1825 8.4103 54.5241C2.80343 48.8041 0 41.0853 0 31.3675ZM8.81561 31.3675C8.81561 37.0874 9.69379 41.8233 11.4502 45.5751C13.2065 49.3269 15.9424 52.1254 19.6578 53.9705C23.3732 55.7542 28.1356 56.646 33.9452 56.646C39.6871 56.646 44.4158 55.7542 48.1312 53.9705C51.8466 52.1254 54.5825 49.3269 56.3388 45.5751C58.0952 41.8233 58.9734 37.0874 58.9734 31.3675C58.9734 25.6475 58.0952 20.9424 56.3388 17.2521C54.5825 13.5618 51.8466 10.8249 48.1312 9.04121C44.4158 7.25757 39.6871 6.36575 33.9452 6.36575C28.1356 6.36575 23.3732 7.25757 19.6578 9.04121C15.9424 10.8249 13.2065 13.5618 11.4502 17.2521C9.69379 20.9424 8.81561 25.6475 8.81561 31.3675Z" fill="white"/>
<path d="M257.228 63.0119C254.053 63.0119 251.553 62.6429 249.729 61.9048C247.973 61.1053 246.723 59.9367 245.98 58.3991C245.304 56.8615 244.967 54.801 244.967 52.2178V22.6955H235.34V18.5439L245.676 16.2375L248.716 6.64274H253.073V16.8833H269.792V22.6955H253.073V57.0152H269.184V63.0119H257.228Z" fill="white"/>
<path d="M400.691 24.5404C402.65 26.447 403.629 29.6453 403.629 34.1352V63.0117H411.736V33.3048C411.736 27.4004 410.317 22.9413 407.48 19.9275C404.642 16.9138 400.353 15.4069 394.611 15.4069C389.409 15.4069 385.221 16.637 382.046 19.0972C379.223 21.3325 377.097 24.3802 375.667 28.2402C375.064 24.7451 373.779 21.9742 371.812 19.9275C369.042 16.9138 364.786 15.4069 359.045 15.4069C354.046 15.4069 349.992 16.637 346.885 19.0972C344.125 21.2828 342.03 24.2692 340.603 28.0566V16.883H332.496V63.0117H340.603V45.3905C340.603 37.3334 341.886 31.3674 344.453 27.4926C347.088 23.5563 351.107 21.5882 356.511 21.5882C360.362 21.5882 363.267 22.5722 365.226 24.5404C367.185 26.447 368.164 29.6453 368.164 34.1352V63.0117H376.068V45.3905C376.068 37.3949 377.351 31.4289 379.918 27.4926C382.553 23.5563 386.606 21.5882 392.078 21.5882C395.928 21.5882 398.799 22.5722 400.691 24.5404Z" fill="white"/>
<path d="M280.697 59.9671C283.737 62.9809 288.432 64.4877 294.782 64.4877C302.213 64.4877 307.617 61.843 310.995 56.5536C312.028 54.9675 312.906 53.1962 313.629 51.2396V63.0116H321.735V16.883H313.629V34.5041C313.629 42.1307 312.177 48.0352 309.272 52.2175C306.435 56.3383 302.382 58.3988 297.113 58.3988C292.857 58.3988 289.648 57.4454 287.486 55.5388C285.392 53.6321 284.345 50.2801 284.345 45.4827V16.883H276.239V46.3131C276.239 52.402 277.725 56.9534 280.697 59.9671Z" fill="white"/>
<path d="M193.375 45.3905V63.0117H185.269V16.883H193.375V29.0005C194.145 26.9457 195.091 25.0899 196.212 23.4333C199.793 18.0824 205.332 15.4069 212.83 15.4069C219.045 15.4069 223.605 16.9138 226.51 19.9275C229.415 22.9413 230.867 27.4926 230.867 33.5816V63.0117H222.761V34.4119C222.761 29.7376 221.714 26.447 219.619 24.5404C217.593 22.5722 214.587 21.5882 210.601 21.5882C204.927 21.5882 200.637 23.5871 197.732 27.5849C194.828 31.5827 193.375 37.5179 193.375 45.3905Z" fill="white"/>
<path fill-rule="evenodd" clip-rule="evenodd" d="M148.39 64.2111C143.391 64.2111 139.338 63.0425 136.231 60.7053C133.191 58.3681 131.671 55.0776 131.671 50.8338C131.671 48.3121 132.178 46.1286 133.191 44.2835C134.272 42.3768 135.961 40.8392 138.257 39.6706C140.554 38.4405 143.493 37.5487 147.073 36.9952L159.942 35.0578C162.711 34.6272 164.67 34.0122 165.819 33.2126C166.967 32.4131 167.541 31.1522 167.541 29.4301C167.541 26.7854 166.596 24.7557 164.704 23.3411C162.88 21.865 159.672 21.1269 155.078 21.1269C150.349 21.1269 146.87 22.0187 144.641 23.8024C142.412 25.586 141.162 28.1077 140.892 31.3675H132.887C133.022 28.1077 133.934 25.2785 135.623 22.8798C137.312 20.4811 139.777 18.636 143.02 17.3444C146.262 15.9913 150.18 15.3147 154.774 15.3147C161.529 15.3147 166.562 16.6063 169.872 19.1895C173.25 21.7112 174.938 25.1247 174.938 29.4301V51.5718C174.938 55.0776 175.141 58.8909 175.546 63.0117H168.149C167.676 58.8909 167.44 55.2929 167.44 52.2176C166.292 55.5389 164.164 58.3681 161.056 60.7053C158.016 63.0425 153.794 64.2111 148.39 64.2111ZM150.012 58.3989C153.794 58.3989 157.003 57.5993 159.638 56.0002C162.272 54.401 164.231 52.2791 165.515 49.6344C166.866 46.9897 167.541 44.1605 167.541 41.1467V37.1797C166.325 37.9177 165.008 38.5328 163.59 39.0248C162.239 39.4554 160.516 39.8859 158.422 40.3164L150.012 41.8848C146.499 42.5614 143.932 43.5762 142.311 44.9293C140.689 46.2824 139.879 48.1583 139.879 50.557C139.879 53.0787 140.791 55.0161 142.614 56.3692C144.438 57.7223 146.904 58.3989 150.012 58.3989Z" fill="white"/>
<path d="M82.0846 59.9671C85.1244 62.9809 89.8193 64.4877 96.1693 64.4877C103.6 64.4877 109.004 61.843 112.382 56.5536C113.415 54.9675 114.293 53.1962 115.016 51.2395V63.0116H123.123V16.883H115.016V34.5041C115.016 42.1307 113.564 48.0352 110.659 52.2175C107.822 56.3383 103.769 58.3988 98.4999 58.3988C94.244 58.3988 91.0353 57.4454 88.8736 55.5388C86.7795 53.6321 85.7324 50.2801 85.7324 45.4827V16.883H77.6261V46.3131C77.6261 52.402 79.1123 56.9534 82.0846 59.9671Z" fill="white"/>
<path fill-rule="evenodd" clip-rule="evenodd" d="M564.99 61.4837C568.851 63.5637 573.693 64.6037 579.517 64.6037C587.509 64.6037 593.401 63.118 597.194 60.1465C601.054 57.1156 603.289 53.639 603.898 49.7166H594.552C593.74 52.2721 592.148 54.2927 589.778 55.7784C587.475 57.2642 584.156 58.007 579.822 58.007C574.743 58.007 570.781 56.7293 567.936 54.1738C565.487 51.9223 564.092 48.3268 563.752 43.3874H603.797C603.932 42.6148 604 41.4856 604 39.9999C604 35.6616 603.052 31.7689 601.156 28.322C599.327 24.8751 596.55 22.1711 592.825 20.2099C589.168 18.1893 584.732 17.179 579.517 17.179C573.896 17.179 569.155 18.219 565.295 20.299C561.435 22.3791 558.556 25.202 556.66 28.7677C554.764 32.3335 553.815 36.345 553.815 40.8022C553.815 45.3783 554.73 49.4492 556.558 53.015C558.387 56.5807 561.198 59.4036 564.99 61.4837ZM563.884 36.8799C564.364 32.7266 565.647 29.666 567.733 27.698C570.442 25.0831 574.404 23.7757 579.619 23.7757C584.834 23.7757 588.66 25.1723 591.098 27.9654C592.99 30.0736 594.032 33.0451 594.226 36.8799H563.884Z" fill="white"/>
<path d="M509.416 63.1774V44.368C509.416 37.4742 510.703 32.4524 513.276 29.3026C515.85 26.1528 519.71 24.578 524.857 24.578C528.447 24.578 531.223 25.4397 533.188 27.1631C535.152 28.8272 536.134 31.8284 536.134 36.1667V63.1774H546.292V35.3644C546.292 29.3026 544.836 24.7562 541.924 21.7253C539.08 18.6944 534.373 17.179 527.803 17.179C520.218 17.179 514.766 19.7939 511.448 25.0237C510.682 26.2302 510.005 27.5015 509.416 28.8376V18.6053H499.257V63.1774H509.416Z" fill="white"/>
<path fill-rule="evenodd" clip-rule="evenodd" d="M435.628 60.6814C440.775 63.3558 447.243 64.6929 455.031 64.6929C462.82 64.6929 469.254 63.3558 474.333 60.6814C479.48 57.9477 483.239 54.2333 485.609 49.5384C488.048 44.8435 489.267 39.4948 489.267 33.4924C489.267 27.5495 488.048 22.2305 485.609 17.5356C483.239 12.8407 479.48 9.12634 474.333 6.39258C469.254 3.65883 462.82 2.29195 455.031 2.29195C447.243 2.29195 440.775 3.65883 435.628 6.39258C430.549 9.12634 426.79 12.8407 424.352 17.5356C421.981 22.2305 420.796 27.5495 420.796 33.4924C420.796 39.5542 421.981 44.9326 424.352 49.6275C426.79 54.263 430.549 57.9477 435.628 60.6814ZM434.104 46.6858C432.547 43.1794 431.768 38.7817 431.768 33.4924C431.768 28.2032 432.547 23.8351 434.104 20.3882C435.73 16.8819 438.236 14.267 441.622 12.5435C445.076 10.7606 449.546 9.86921 455.031 9.86921C460.517 9.86921 464.953 10.7606 468.339 12.5435C471.793 14.267 474.299 16.8819 475.857 20.3882C477.482 23.8351 478.295 28.2032 478.295 33.4924C478.295 38.7817 477.482 43.1794 475.857 46.6858C474.299 50.1327 471.793 52.7476 468.339 54.5305C464.953 56.2539 460.517 57.1157 455.031 57.1157C449.546 57.1157 445.076 56.2539 441.622 54.5305C438.236 52.7476 435.73 50.1327 434.104 46.6858Z" fill="white"/>
<path d="M582.045 102.477H591.933V104.085H580.053V88.125H591.861V89.733H582.045V95.085H591.141V96.669H582.045V102.477Z" fill="white"/>
<path d="M569.01 88.125H570.978V104.085H567.642L560.394 91.557C559.994 90.789 559.658 90.093 559.386 89.469V104.085H557.394V88.125H560.754L568.002 100.677C568.322 101.253 568.658 101.941 569.01 102.741V88.125Z" fill="white"/>
<path d="M548.745 89.733H545.361V102.477H548.745V104.085H540.009V102.477H543.393V89.733H540.009V88.125H548.745V89.733Z" fill="white"/>
<path d="M523.595 104.493C521.051 104.493 519.123 103.733 517.811 102.213C516.515 100.677 515.867 98.6369 515.867 96.0929C515.867 93.5649 516.547 91.5329 517.907 89.9969C519.283 88.4609 521.299 87.6929 523.955 87.6929C528.563 87.6929 531.099 89.7409 531.563 93.8369H529.499C529.291 92.2849 528.739 91.1489 527.843 90.4289C526.963 89.7089 525.643 89.3489 523.883 89.3489C521.867 89.3489 520.371 89.9089 519.395 91.0289C518.435 92.1329 517.955 93.8209 517.955 96.0929C517.955 98.3489 518.435 100.037 519.395 101.157C520.355 102.277 521.851 102.837 523.883 102.837C527.163 102.837 529.067 101.125 529.595 97.7009H522.395V96.2129H531.539V104.061H529.739V100.173C529.355 101.453 528.659 102.493 527.651 103.293C526.659 104.093 525.307 104.493 523.595 104.493Z" fill="white"/>
<path d="M505.488 88.125H507.456V104.085H504.12L496.872 91.557C496.472 90.789 496.136 90.093 495.864 89.469V104.085H493.872V88.125H497.232L504.48 100.677C504.8 101.253 505.136 101.941 505.488 102.741V88.125Z" fill="white"/>
<path d="M475.385 102.477H485.273V104.085H473.393V88.125H485.201V89.733H475.385V95.085H484.481V96.669H475.385V102.477Z" fill="white"/>
<path d="M440.073 88.125H442.041V104.085H438.705L431.457 91.557C431.057 90.789 430.721 90.093 430.449 89.469V104.085H428.457V88.125H431.817L439.065 100.677C439.385 101.253 439.721 101.941 440.073 102.741V88.125Z" fill="white"/>
<path d="M418.071 102.189C416.743 103.725 414.751 104.493 412.095 104.493C409.439 104.493 407.447 103.733 406.119 102.213C404.807 100.677 404.151 98.6369 404.151 96.0929C404.151 93.5809 404.807 91.5569 406.119 90.0209C407.447 88.4689 409.439 87.6929 412.095 87.6929C413.439 87.6929 414.631 87.9089 415.671 88.3409C416.711 88.7569 417.543 89.3489 418.167 90.1169C418.791 90.8849 419.263 91.7729 419.583 92.7809C419.903 93.7889 420.063 94.8929 420.063 96.0929C420.063 98.6209 419.399 100.653 418.071 102.189ZM407.655 91.0289C406.711 92.1329 406.239 93.8209 406.239 96.0929C406.239 98.3649 406.711 100.061 407.655 101.181C408.599 102.285 410.079 102.837 412.095 102.837C414.111 102.837 415.591 102.285 416.535 101.181C417.495 100.061 417.975 98.3649 417.975 96.0929C417.975 93.8209 417.495 92.1329 416.535 91.0289C415.591 89.9089 414.111 89.3489 412.095 89.3489C410.079 89.3489 408.599 89.9089 407.655 91.0289Z" fill="white"/>
<path d="M396.727 89.733H393.343V102.477H396.727V104.085H387.991V102.477H391.375V89.733H387.991V88.125H396.727V89.733Z" fill="white"/>
<path d="M380.629 88.125V89.733H374.917V104.109H372.949V89.733H367.189V88.125H380.629Z" fill="white"/>
<path d="M360.846 104.085L359.286 100.005H351.366L349.806 104.085H347.814L353.862 88.125H356.814L362.862 104.085H360.846ZM351.966 98.397H358.686L355.326 89.565L351.966 98.397Z" fill="white"/>
<path d="M327.578 98.6129H329.522C329.57 101.461 331.242 102.885 334.538 102.885C336.106 102.885 337.21 102.637 337.85 102.141C338.506 101.629 338.834 100.885 338.834 99.9089C338.834 99.0769 338.602 98.4369 338.138 97.9889C337.674 97.5409 336.938 97.2289 335.93 97.0529L332.162 96.4769C330.786 96.2689 329.762 95.8209 329.09 95.1329C328.434 94.4449 328.106 93.5009 328.106 92.3009C328.106 90.9409 328.618 89.8369 329.642 88.9889C330.682 88.1249 332.194 87.6929 334.178 87.6929C336.194 87.6929 337.746 88.1569 338.834 89.0849C339.922 90.0129 340.522 91.2769 340.634 92.8769H338.714C338.474 90.4609 336.954 89.2529 334.154 89.2529C332.794 89.2529 331.778 89.5249 331.106 90.0689C330.45 90.5969 330.122 91.3249 330.122 92.2529C330.122 93.6769 330.922 94.5169 332.522 94.7729L336.506 95.3729C337.962 95.6129 339.05 96.0769 339.77 96.7649C340.49 97.4369 340.85 98.3969 340.85 99.6449C340.85 102.845 338.746 104.445 334.538 104.445C332.106 104.445 330.338 103.909 329.234 102.837C328.13 101.749 327.578 100.341 327.578 98.6129Z" fill="white"/>
<path d="M319.757 89.733H316.373V102.477H319.757V104.085H311.021V102.477H314.405V89.733H311.021V88.125H319.757V89.733Z" fill="white"/>
<path d="M302.132 88.125V104.085H300.14V89.613L294.764 104.085H292.076L286.676 89.613V104.085H284.684V88.125H288.164L293.444 102.285L298.7 88.125H302.132Z" fill="white"/>
<path d="M276.034 89.733H272.65V102.477H276.034V104.085H267.298V102.477H270.682V89.733H267.298V88.125H276.034V89.733Z" fill="white"/>
<path d="M259.936 88.125V89.733H254.224V104.109H252.256V89.733H246.496V88.125H259.936Z" fill="white"/>
<path d="M234.904 88.125C236.536 88.125 237.744 88.557 238.528 89.421C239.328 90.285 239.728 91.405 239.728 92.781C239.728 94.157 239.32 95.285 238.504 96.165C237.704 97.029 236.472 97.461 234.808 97.461H229.6V104.085H227.584V88.125H234.904ZM234.4 95.853C236.56 95.853 237.64 94.829 237.64 92.781C237.64 90.749 236.584 89.733 234.472 89.733H229.6V95.853H234.4Z" fill="white"/>
<path d="M217.197 102.189C215.869 103.725 213.877 104.493 211.221 104.493C208.565 104.493 206.573 103.733 205.245 102.213C203.933 100.677 203.277 98.6369 203.277 96.0929C203.277 93.5809 203.933 91.5569 205.245 90.0209C206.573 88.4689 208.565 87.6929 211.221 87.6929C212.565 87.6929 213.757 87.9089 214.797 88.3409C215.837 88.7569 216.669 89.3489 217.293 90.1169C217.917 90.8849 218.389 91.7729 218.709 92.7809C219.029 93.7889 219.189 94.8929 219.189 96.0929C219.189 98.6209 218.525 100.653 217.197 102.189ZM206.781 91.0289C205.837 92.1329 205.365 93.8209 205.365 96.0929C205.365 98.3649 205.837 100.061 206.781 101.181C207.725 102.285 209.205 102.837 211.221 102.837C213.237 102.837 214.717 102.285 215.661 101.181C216.621 100.061 217.101 98.3649 217.101 96.0929C217.101 93.8209 216.621 92.1329 215.661 91.0289C214.717 89.9089 213.237 89.3489 211.221 89.3489C209.205 89.3489 207.725 89.9089 206.781 91.0289Z" fill="white"/>
<path d="M165.004 102.477H173.356V104.085H163.012V88.125H165.004V102.477Z" fill="white"/>
<path d="M153.111 104.085L151.551 100.005H143.631L142.071 104.085H140.079L146.127 88.125H149.079L155.127 104.085H153.111ZM144.231 98.397H150.951L147.591 89.565L144.231 98.397Z" fill="white"/>
<path d="M130.6 88.125H132.568V104.085H129.232L121.984 91.557C121.584 90.789 121.248 90.093 120.976 89.469V104.085H118.984V88.125H122.344L129.592 100.677C129.912 101.253 130.248 101.941 130.6 102.741V88.125Z" fill="white"/>
<path d="M108.598 102.189C107.27 103.725 105.278 104.493 102.622 104.493C99.9661 104.493 97.9741 103.733 96.6461 102.213C95.3341 100.677 94.6781 98.6369 94.6781 96.0929C94.6781 93.5809 95.3341 91.5569 96.6461 90.0209C97.9741 88.4689 99.9661 87.6929 102.622 87.6929C103.966 87.6929 105.158 87.9089 106.198 88.3409C107.238 88.7569 108.07 89.3489 108.694 90.1169C109.318 90.8849 109.79 91.7729 110.11 92.7809C110.43 93.7889 110.59 94.8929 110.59 96.0929C110.59 98.6209 109.926 100.653 108.598 102.189ZM98.1821 91.0289C97.2381 92.1329 96.7661 93.8209 96.7661 96.0929C96.7661 98.3649 97.2381 100.061 98.1821 101.181C99.1261 102.285 100.606 102.837 102.622 102.837C104.638 102.837 106.118 102.285 107.062 101.181C108.022 100.061 108.502 98.3649 108.502 96.0929C108.502 93.8209 108.022 92.1329 107.062 91.0289C106.118 89.9089 104.638 89.3489 102.622 89.3489C100.606 89.3489 99.1261 89.9089 98.1821 91.0289Z" fill="white"/>
<path d="M73.4946 98.6129H75.4386C75.4866 101.461 77.1586 102.885 80.4546 102.885C82.0226 102.885 83.1266 102.637 83.7666 102.141C84.4226 101.629 84.7506 100.885 84.7506 99.9089C84.7506 99.0769 84.5186 98.4369 84.0546 97.9889C83.5906 97.5409 82.8546 97.2289 81.8466 97.0529L78.0786 96.4769C76.7026 96.2689 75.6786 95.8209 75.0066 95.1329C74.3506 94.4449 74.0226 93.5009 74.0226 92.3009C74.0226 90.9409 74.5346 89.8369 75.5586 88.9889C76.5986 88.1249 78.1106 87.6929 80.0946 87.6929C82.1106 87.6929 83.6626 88.1569 84.7506 89.0849C85.8386 90.0129 86.4386 91.2769 86.5506 92.8769H84.6306C84.3906 90.4609 82.8706 89.2529 80.0706 89.2529C78.7106 89.2529 77.6946 89.5249 77.0226 90.0689C76.3666 90.5969 76.0386 91.3249 76.0386 92.2529C76.0386 93.6769 76.8386 94.5169 78.4386 94.7729L82.4226 95.3729C83.8786 95.6129 84.9666 96.0769 85.6866 96.7649C86.4066 97.4369 86.7666 98.3969 86.7666 99.6449C86.7666 102.845 84.6626 104.445 80.4546 104.445C78.0226 104.445 76.2546 103.909 75.1506 102.837C74.0466 101.749 73.4946 100.341 73.4946 98.6129Z" fill="white"/>
<path d="M64.6927 99.861V101.541C64.6927 102.373 64.7967 103.221 65.0047 104.085H63.0607C62.8687 103.477 62.7727 102.653 62.7727 101.613V100.149C62.7727 98.005 61.6287 96.933 59.3407 96.933H54.8527V104.085H52.8607V88.125H60.3007C61.9167 88.125 63.1327 88.501 63.9487 89.253C64.7807 89.989 65.1967 91.013 65.1967 92.325C65.1967 93.365 64.9087 94.245 64.3327 94.965C63.7567 95.685 63.0127 96.149 62.1007 96.357C62.9647 96.597 63.6127 96.973 64.0447 97.485C64.4767 97.981 64.6927 98.773 64.6927 99.861ZM60.0607 95.445C62.0927 95.445 63.1087 94.461 63.1087 92.493C63.1087 90.653 62.1007 89.733 60.0847 89.733H54.8527V95.445H60.0607Z" fill="white"/>
<path d="M34.3741 102.477H44.2621V104.085H32.3821V88.125H44.1901V89.733H34.3741V95.085H43.4701V96.669H34.3741V102.477Z" fill="white"/>
<path d="M19.3874 88.125C21.0194 88.125 22.2274 88.557 23.0114 89.421C23.8114 90.285 24.2114 91.405 24.2114 92.781C24.2114 94.157 23.8034 95.285 22.9874 96.165C22.1874 97.029 20.9554 97.461 19.2914 97.461H14.0834V104.085H12.0674V88.125H19.3874ZM18.8834 95.853C21.0434 95.853 22.1234 94.829 22.1234 92.781C22.1234 90.749 21.0674 89.733 18.9554 89.733H14.0834V95.853H18.8834Z" fill="white"/>
</svg>
