<svg width="604" height="102" viewBox="0 0 604 102" fill="none" xmlns="http://www.w3.org/2000/svg">
<path fill-rule="evenodd" clip-rule="evenodd" d="M0 31.3675C0 25.094 1.21595 19.62 3.64784 14.9457C6.07973 10.2098 9.8289 6.55027 14.8953 3.96706C19.9618 1.32235 26.3117 0 33.9452 0C41.5111 0 47.8272 1.32235 52.8937 3.96706C57.9601 6.55027 61.7093 10.1483 64.1412 14.7612C66.5731 19.374 67.789 24.6942 67.789 30.7217C67.789 36.9952 66.3029 42.4076 63.3305 46.959C60.3582 51.5103 55.8998 54.8316 49.9551 56.9227H69.005V63.0117H33.9452C22.5963 63.0117 14.0847 60.1825 8.4103 54.5241C2.80343 48.8041 0 41.0853 0 31.3675ZM8.81561 31.3675C8.81561 37.0874 9.69379 41.8233 11.4502 45.5751C13.2065 49.3269 15.9424 52.1254 19.6578 53.9705C23.3732 55.7542 28.1356 56.646 33.9452 56.646C39.6871 56.646 44.4158 55.7542 48.1312 53.9705C51.8466 52.1254 54.5825 49.3269 56.3388 45.5751C58.0952 41.8233 58.9734 37.0874 58.9734 31.3675C58.9734 25.6475 58.0952 20.9424 56.3388 17.2521C54.5825 13.5618 51.8466 10.8249 48.1312 9.04121C44.4158 7.25757 39.6871 6.36575 33.9452 6.36575C28.1356 6.36575 23.3732 7.25757 19.6578 9.04121C15.9424 10.8249 13.2065 13.5618 11.4502 17.2521C9.69379 20.9424 8.81561 25.6475 8.81561 31.3675Z" fill="white"/>
<path d="M257.228 63.0119C254.053 63.0119 251.553 62.6429 249.729 61.9048C247.973 61.1053 246.723 59.9367 245.98 58.3991C245.304 56.8615 244.967 54.801 244.967 52.2178V22.6955H235.34V18.5439L245.676 16.2375L248.716 6.64274H253.073V16.8833H269.792V22.6955H253.073V57.0152H269.184V63.0119H257.228Z" fill="white"/>
<path d="M400.691 24.5404C402.65 26.447 403.629 29.6453 403.629 34.1352V63.0117H411.736V33.3048C411.736 27.4004 410.317 22.9413 407.48 19.9275C404.642 16.9138 400.353 15.4069 394.611 15.4069C389.409 15.4069 385.221 16.637 382.046 19.0972C379.223 21.3325 377.097 24.3802 375.667 28.2402C375.064 24.7451 373.779 21.9742 371.812 19.9275C369.042 16.9138 364.786 15.4069 359.045 15.4069C354.046 15.4069 349.992 16.637 346.885 19.0972C344.125 21.2828 342.03 24.2692 340.603 28.0566V16.883H332.496V63.0117H340.603V45.3905C340.603 37.3334 341.886 31.3674 344.453 27.4926C347.088 23.5563 351.107 21.5882 356.511 21.5882C360.362 21.5882 363.267 22.5722 365.226 24.5404C367.185 26.447 368.164 29.6453 368.164 34.1352V63.0117H376.068V45.3905C376.068 37.3949 377.351 31.4289 379.918 27.4926C382.553 23.5563 386.606 21.5882 392.078 21.5882C395.928 21.5882 398.799 22.5722 400.691 24.5404Z" fill="white"/>
<path d="M280.697 59.9671C283.737 62.9809 288.432 64.4877 294.782 64.4877C302.213 64.4877 307.617 61.843 310.995 56.5536C312.028 54.9675 312.906 53.1962 313.629 51.2396V63.0116H321.735V16.883H313.629V34.5041C313.629 42.1307 312.177 48.0352 309.272 52.2175C306.435 56.3383 302.382 58.3988 297.113 58.3988C292.857 58.3988 289.648 57.4454 287.486 55.5388C285.392 53.6321 284.345 50.2801 284.345 45.4827V16.883H276.239V46.3131C276.239 52.402 277.725 56.9534 280.697 59.9671Z" fill="white"/>
<path d="M193.375 45.3905V63.0117H185.269V16.883H193.375V29.0005C194.145 26.9457 195.091 25.0899 196.212 23.4333C199.793 18.0824 205.332 15.4069 212.83 15.4069C219.045 15.4069 223.605 16.9138 226.51 19.9275C229.415 22.9413 230.867 27.4926 230.867 33.5816V63.0117H222.761V34.4119C222.761 29.7376 221.714 26.447 219.619 24.5404C217.593 22.5722 214.587 21.5882 210.601 21.5882C204.927 21.5882 200.637 23.5871 197.732 27.5849C194.828 31.5827 193.375 37.5179 193.375 45.3905Z" fill="white"/>
<path fill-rule="evenodd" clip-rule="evenodd" d="M148.39 64.2111C143.391 64.2111 139.338 63.0425 136.231 60.7053C133.191 58.3681 131.671 55.0776 131.671 50.8338C131.671 48.3121 132.178 46.1286 133.191 44.2835C134.272 42.3768 135.961 40.8392 138.257 39.6706C140.554 38.4405 143.493 37.5487 147.073 36.9952L159.942 35.0578C162.711 34.6272 164.67 34.0122 165.819 33.2126C166.967 32.4131 167.541 31.1522 167.541 29.4301C167.541 26.7854 166.596 24.7557 164.704 23.3411C162.88 21.865 159.672 21.1269 155.078 21.1269C150.349 21.1269 146.87 22.0187 144.641 23.8024C142.412 25.586 141.162 28.1077 140.892 31.3675H132.887C133.022 28.1077 133.934 25.2785 135.623 22.8798C137.312 20.4811 139.777 18.636 143.02 17.3444C146.262 15.9913 150.18 15.3147 154.774 15.3147C161.529 15.3147 166.562 16.6063 169.872 19.1895C173.25 21.7112 174.938 25.1247 174.938 29.4301V51.5718C174.938 55.0776 175.141 58.8909 175.546 63.0117H168.149C167.676 58.8909 167.44 55.2929 167.44 52.2176C166.292 55.5389 164.164 58.3681 161.056 60.7053C158.016 63.0425 153.794 64.2111 148.39 64.2111ZM150.012 58.3989C153.794 58.3989 157.003 57.5993 159.638 56.0002C162.272 54.401 164.231 52.2791 165.515 49.6344C166.866 46.9897 167.541 44.1605 167.541 41.1467V37.1797C166.325 37.9177 165.008 38.5328 163.59 39.0248C162.239 39.4554 160.516 39.8859 158.422 40.3164L150.012 41.8848C146.499 42.5614 143.932 43.5762 142.311 44.9293C140.689 46.2824 139.879 48.1583 139.879 50.557C139.879 53.0787 140.791 55.0161 142.614 56.3692C144.438 57.7223 146.904 58.3989 150.012 58.3989Z" fill="white"/>
<path d="M82.0846 59.9671C85.1244 62.9809 89.8193 64.4877 96.1693 64.4877C103.6 64.4877 109.004 61.843 112.382 56.5536C113.415 54.9675 114.293 53.1962 115.016 51.2395V63.0116H123.123V16.883H115.016V34.5041C115.016 42.1307 113.564 48.0352 110.659 52.2175C107.822 56.3383 103.769 58.3988 98.4999 58.3988C94.244 58.3988 91.0353 57.4454 88.8736 55.5388C86.7795 53.6321 85.7324 50.2801 85.7324 45.4827V16.883H77.6261V46.3131C77.6261 52.402 79.1123 56.9534 82.0846 59.9671Z" fill="white"/>
<path fill-rule="evenodd" clip-rule="evenodd" d="M564.99 61.4837C568.851 63.5637 573.693 64.6037 579.517 64.6037C587.509 64.6037 593.401 63.118 597.194 60.1465C601.054 57.1156 603.289 53.639 603.898 49.7166H594.552C593.74 52.2721 592.148 54.2927 589.778 55.7784C587.475 57.2642 584.156 58.007 579.822 58.007C574.743 58.007 570.781 56.7293 567.936 54.1738C565.487 51.9223 564.092 48.3268 563.752 43.3874H603.797C603.932 42.6148 604 41.4856 604 39.9999C604 35.6616 603.052 31.7689 601.156 28.322C599.327 24.8751 596.55 22.1711 592.825 20.2099C589.168 18.1893 584.732 17.179 579.517 17.179C573.896 17.179 569.155 18.219 565.295 20.299C561.435 22.3791 558.556 25.202 556.66 28.7677C554.764 32.3335 553.815 36.345 553.815 40.8022C553.815 45.3783 554.73 49.4492 556.558 53.015C558.387 56.5807 561.198 59.4036 564.99 61.4837ZM563.884 36.8799C564.364 32.7266 565.647 29.666 567.733 27.698C570.442 25.0831 574.404 23.7757 579.619 23.7757C584.834 23.7757 588.66 25.1723 591.098 27.9654C592.99 30.0736 594.032 33.0451 594.226 36.8799H563.884Z" fill="white"/>
<path d="M509.416 63.1774V44.368C509.416 37.4742 510.703 32.4524 513.276 29.3026C515.85 26.1528 519.71 24.578 524.857 24.578C528.447 24.578 531.223 25.4397 533.188 27.1631C535.152 28.8272 536.134 31.8284 536.134 36.1667V63.1774H546.292V35.3644C546.292 29.3026 544.836 24.7562 541.924 21.7253C539.08 18.6944 534.373 17.179 527.803 17.179C520.218 17.179 514.766 19.7939 511.448 25.0237C510.682 26.2302 510.005 27.5015 509.416 28.8376V18.6053H499.257V63.1774H509.416Z" fill="white"/>
<path fill-rule="evenodd" clip-rule="evenodd" d="M435.628 60.6814C440.775 63.3558 447.243 64.6929 455.031 64.6929C462.82 64.6929 469.254 63.3558 474.333 60.6814C479.48 57.9477 483.239 54.2333 485.609 49.5384C488.048 44.8435 489.267 39.4948 489.267 33.4924C489.267 27.5495 488.048 22.2305 485.609 17.5356C483.239 12.8407 479.48 9.12634 474.333 6.39258C469.254 3.65883 462.82 2.29195 455.031 2.29195C447.243 2.29195 440.775 3.65883 435.628 6.39258C430.549 9.12634 426.79 12.8407 424.352 17.5356C421.981 22.2305 420.796 27.5495 420.796 33.4924C420.796 39.5542 421.981 44.9326 424.352 49.6275C426.79 54.263 430.549 57.9477 435.628 60.6814ZM434.104 46.6858C432.547 43.1794 431.768 38.7817 431.768 33.4924C431.768 28.2032 432.547 23.8351 434.104 20.3882C435.73 16.8819 438.236 14.267 441.622 12.5435C445.076 10.7606 449.546 9.86921 455.031 9.86921C460.517 9.86921 464.953 10.7606 468.339 12.5435C471.793 14.267 474.299 16.8819 475.857 20.3882C477.482 23.8351 478.295 28.2032 478.295 33.4924C478.295 38.7817 477.482 43.1794 475.857 46.6858C474.299 50.1327 471.793 52.7476 468.339 54.5305C464.953 56.2539 460.517 57.1157 455.031 57.1157C449.546 57.1157 445.076 56.2539 441.622 54.5305C438.236 52.7476 435.73 50.1327 434.104 46.6858Z" fill="white"/>
<path d="M19.7607 87.2932C21.2275 87.2932 22.3133 87.6813 23.0179 88.4576C23.737 89.2339 24.0965 90.2403 24.0965 91.4766C24.0965 92.713 23.7298 93.7265 22.9964 94.5172C22.2773 95.2935 21.17 95.6817 19.6744 95.6817H14.9934V101.633H13.1814V87.2932H19.7607ZM19.3077 94.2369C21.2491 94.2369 22.2198 93.3168 22.2198 91.4766C22.2198 89.6508 21.2707 88.738 19.3724 88.738H14.9934V94.2369H19.3077Z" fill="white"/>
<path d="M35.388 100.189H44.2754V101.633H33.5975V87.2932H44.2107V88.738H35.388V93.5468H43.5635V94.97H35.388V100.189Z" fill="white"/>
<path d="M64.7959 97.8381V99.3476C64.7959 100.095 64.8894 100.857 65.0763 101.633H63.329C63.1565 101.087 63.0702 100.347 63.0702 99.4123V98.0969C63.0702 96.1705 62.0419 95.2073 59.9855 95.2073H55.9516V101.633H54.1612V87.2932H60.8483C62.3008 87.2932 63.3938 87.631 64.1272 88.3067C64.875 88.968 65.2489 89.8881 65.2489 91.0669C65.2489 92.0014 64.99 92.792 64.4723 93.439C63.9546 94.0859 63.2859 94.5028 62.4662 94.6897C63.2428 94.9054 63.8252 95.2432 64.2135 95.7032C64.6018 96.1489 64.7959 96.8605 64.7959 97.8381ZM60.6326 93.8703C62.459 93.8703 63.3722 92.9861 63.3722 91.2178C63.3722 89.5646 62.4662 88.738 60.6542 88.738H55.9516V93.8703H60.6326Z" fill="white"/>
<path d="M74.8642 96.7168H76.6115C76.6546 99.2757 78.1574 100.555 81.1199 100.555C82.5292 100.555 83.5215 100.332 84.0968 99.8867C84.6864 99.4267 84.9812 98.7582 84.9812 97.8812C84.9812 97.1337 84.7727 96.5586 84.3556 96.1561C83.9386 95.7535 83.277 95.4732 82.371 95.3151L78.9843 94.7975C77.7476 94.6106 76.8272 94.2081 76.2232 93.5899C75.6336 92.9717 75.3388 92.1235 75.3388 91.0453C75.3388 89.8234 75.799 88.8314 76.7193 88.0695C77.6541 87.2932 79.0131 86.905 80.7963 86.905C82.6083 86.905 84.0033 87.3219 84.9812 88.1557C85.9591 88.9895 86.4984 90.1253 86.5991 91.5629H84.8733C84.6576 89.3921 83.2914 88.3067 80.7748 88.3067C79.5524 88.3067 78.6392 88.5511 78.0352 89.0399C77.4456 89.5143 77.1508 90.1684 77.1508 91.0022C77.1508 92.2817 77.8698 93.0364 79.3079 93.2665L82.8888 93.8056C84.1974 94.0212 85.1753 94.4381 85.8225 95.0563C86.4696 95.6601 86.7932 96.5227 86.7932 97.644C86.7932 100.519 84.9021 101.957 81.1199 101.957C78.934 101.957 77.3449 101.475 76.3526 100.512C75.3603 99.5345 74.8642 98.2694 74.8642 96.7168Z" fill="white"/>
<path d="M108.573 99.9298C107.379 101.31 105.589 102 103.201 102C100.814 102 99.0238 101.317 97.8302 99.9514C96.6509 98.5713 96.0613 96.7383 96.0613 94.4525C96.0613 92.1954 96.6509 90.3768 97.8302 88.9967C99.0238 87.6022 100.814 86.905 103.201 86.905C104.409 86.905 105.481 87.0991 106.416 87.4872C107.35 87.861 108.098 88.3929 108.659 89.083C109.22 89.773 109.644 90.5709 109.932 91.4766C110.219 92.3823 110.363 93.3743 110.363 94.4525C110.363 96.7239 109.766 98.5497 108.573 99.9298ZM99.2108 89.9024C98.3623 90.8944 97.938 92.4111 97.938 94.4525C97.938 96.4939 98.3623 98.0178 99.2108 99.0241C100.059 100.016 101.389 100.512 103.201 100.512C105.013 100.512 106.344 100.016 107.192 99.0241C108.055 98.0178 108.486 96.4939 108.486 94.4525C108.486 92.4111 108.055 90.8944 107.192 89.9024C106.344 88.8961 105.013 88.3929 103.201 88.3929C101.389 88.3929 100.059 88.8961 99.2108 89.9024Z" fill="white"/>
<path d="M130.506 87.2932H132.275V101.633H129.276L122.762 90.3768C122.402 89.6868 122.1 89.0614 121.856 88.5008V101.633H120.065V87.2932H123.085L129.6 98.5713C129.887 99.0888 130.189 99.707 130.506 100.426V87.2932Z" fill="white"/>
<path d="M152.895 101.633L151.493 97.9675H144.375L142.972 101.633H141.182L146.618 87.2932H149.271L154.707 101.633H152.895ZM144.914 96.5227H150.954L147.934 88.587L144.914 96.5227Z" fill="white"/>
<path d="M165.743 100.189H173.249V101.633H163.952V87.2932H165.743V100.189Z" fill="white"/>
<path d="M217.126 99.9298C215.932 101.31 214.141 102 211.754 102C209.367 102 207.577 101.317 206.383 99.9514C205.204 98.5713 204.614 96.7383 204.614 94.4525C204.614 92.1954 205.204 90.3768 206.383 88.9967C207.577 87.6022 209.367 86.905 211.754 86.905C212.962 86.905 214.034 87.0991 214.968 87.4872C215.903 87.861 216.651 88.3929 217.212 89.083C217.773 89.773 218.197 90.5709 218.484 91.4766C218.772 92.3823 218.916 93.3743 218.916 94.4525C218.916 96.7239 218.319 98.5497 217.126 99.9298ZM207.764 89.9024C206.915 90.8944 206.491 92.4111 206.491 94.4525C206.491 96.4939 206.915 98.0178 207.764 99.0241C208.612 100.016 209.942 100.512 211.754 100.512C213.566 100.512 214.896 100.016 215.745 99.0241C216.608 98.0178 217.039 96.4939 217.039 94.4525C217.039 92.4111 216.608 90.8944 215.745 89.9024C214.896 88.8961 213.566 88.3929 211.754 88.3929C209.942 88.3929 208.612 88.8961 207.764 89.9024Z" fill="white"/>
<path d="M235.197 87.2932C236.664 87.2932 237.75 87.6813 238.455 88.4576C239.174 89.2339 239.533 90.2403 239.533 91.4766C239.533 92.713 239.166 93.7265 238.433 94.5172C237.714 95.2935 236.607 95.6817 235.111 95.6817H230.43V101.633H228.618V87.2932H235.197ZM234.744 94.2369C236.686 94.2369 237.656 93.3168 237.656 91.4766C237.656 89.6508 236.707 88.738 234.809 88.738H230.43V94.2369H234.744Z" fill="white"/>
<path d="M259.854 87.2932V88.738H254.72V101.655H252.951V88.738H247.774V87.2932H259.854Z" fill="white"/>
<path d="M276.48 88.738H273.439V100.189H276.48V101.633H268.628V100.189H271.67V88.738H268.628V87.2932H276.48V88.738Z" fill="white"/>
<path d="M302.094 87.2932V101.633H300.304V88.6301L295.472 101.633H293.056L288.202 88.6301V101.633H286.412V87.2932H289.54L294.285 100.016L299.009 87.2932H302.094Z" fill="white"/>
<path d="M320.093 88.738H317.052V100.189H320.093V101.633H312.241V100.189H315.283V88.738H312.241V87.2932H320.093V88.738Z" fill="white"/>
<path d="M329.279 96.7168H331.027C331.07 99.2757 332.573 100.555 335.535 100.555C336.944 100.555 337.937 100.332 338.512 99.8867C339.102 99.4267 339.396 98.7582 339.396 97.8812C339.396 97.1337 339.188 96.5586 338.771 96.1561C338.354 95.7535 337.692 95.4732 336.786 95.3151L333.4 94.7975C332.163 94.6106 331.242 94.2081 330.638 93.5899C330.049 92.9717 329.754 92.1235 329.754 91.0453C329.754 89.8234 330.214 88.8314 331.135 88.0695C332.069 87.2932 333.428 86.905 335.212 86.905C337.024 86.905 338.418 87.3219 339.396 88.1557C340.374 88.9895 340.914 90.1253 341.014 91.5629H339.289C339.073 89.3921 337.707 88.3067 335.19 88.3067C333.968 88.3067 333.054 88.5511 332.45 89.0399C331.861 89.5143 331.566 90.1684 331.566 91.0022C331.566 92.2817 332.285 93.0364 333.723 93.2665L337.304 93.8056C338.613 94.0212 339.591 94.4381 340.238 95.0563C340.885 95.6601 341.208 96.5227 341.208 97.644C341.208 100.519 339.317 101.957 335.535 101.957C333.349 101.957 331.76 101.475 330.768 100.512C329.776 99.5345 329.279 98.2694 329.279 96.7168Z" fill="white"/>
<path d="M361.338 101.633L359.936 97.9675H352.817L351.415 101.633H349.625L355.061 87.2932H357.714L363.15 101.633H361.338ZM353.357 96.5227H359.397L356.377 88.587L353.357 96.5227Z" fill="white"/>
<path d="M381.276 87.2932V88.738H376.142V101.655H374.373V88.738H369.196V87.2932H381.276Z" fill="white"/>
<path d="M397.903 88.738H394.861V100.189H397.903V101.633H390.051V100.189H393.093V88.738H390.051V87.2932H397.903V88.738Z" fill="white"/>
<path d="M419.244 99.9298C418.05 101.31 416.26 102 413.873 102C411.485 102 409.695 101.317 408.501 99.9514C407.322 98.5713 406.732 96.7383 406.732 94.4525C406.732 92.1954 407.322 90.3768 408.501 88.9967C409.695 87.6022 411.485 86.905 413.873 86.905C415.081 86.905 416.152 87.0991 417.087 87.4872C418.022 87.861 418.769 88.3929 419.33 89.083C419.891 89.773 420.315 90.5709 420.603 91.4766C420.891 92.3823 421.034 93.3743 421.034 94.4525C421.034 96.7239 420.438 98.5497 419.244 99.9298ZM409.882 89.9024C409.033 90.8944 408.609 92.4111 408.609 94.4525C408.609 96.4939 409.033 98.0178 409.882 99.0241C410.73 100.016 412.061 100.512 413.873 100.512C415.685 100.512 417.015 100.016 417.863 99.0241C418.726 98.0178 419.158 96.4939 419.158 94.4525C419.158 92.4111 418.726 90.8944 417.863 89.9024C417.015 88.8961 415.685 88.3929 413.873 88.3929C412.061 88.3929 410.73 88.8961 409.882 89.9024Z" fill="white"/>
<path d="M441.177 87.2932H442.946V101.633H439.947L433.433 90.3768C433.073 89.6868 432.771 89.0614 432.527 88.5008V101.633H430.736V87.2932H433.756L440.271 98.5713C440.559 99.0888 440.861 99.707 441.177 100.426V87.2932Z" fill="white"/>
<path d="M477.387 100.189H486.275V101.633H475.597V87.2932H486.21V88.738H477.387V93.5468H485.563V94.97H477.387V100.189Z" fill="white"/>
<path d="M506.601 87.2932H508.37V101.633H505.372L498.857 90.3768C498.498 89.6868 498.196 89.0614 497.951 88.5008V101.633H496.161V87.2932H499.181L505.695 98.5713C505.983 99.0888 506.285 99.707 506.601 100.426V87.2932Z" fill="white"/>
<path d="M525.033 102C522.746 102 521.013 101.317 519.834 99.9514C518.669 98.5713 518.087 96.7383 518.087 94.4525C518.087 92.1811 518.698 90.3553 519.92 88.9752C521.157 87.5951 522.969 86.905 525.357 86.905C529.498 86.905 531.778 88.7451 532.195 92.4255H530.34C530.153 91.031 529.656 90.0103 528.851 89.3633C528.06 88.7164 526.874 88.3929 525.292 88.3929C523.48 88.3929 522.135 88.8961 521.258 89.9024C520.395 90.8944 519.964 92.4111 519.964 94.4525C519.964 96.4795 520.395 97.9962 521.258 99.0026C522.121 100.009 523.465 100.512 525.292 100.512C528.24 100.512 529.951 98.9738 530.426 95.8973H523.954V94.5603H532.173V101.612H530.555V98.1184C530.21 99.2685 529.585 100.203 528.679 100.922C527.787 101.641 526.572 102 525.033 102Z" fill="white"/>
<path d="M549.795 88.738H546.753V100.189H549.795V101.633H541.943V100.189H544.984V88.738H541.943V87.2932H549.795V88.738Z" fill="white"/>
<path d="M570.167 87.2932H571.936V101.633H568.937L562.423 90.3768C562.063 89.6868 561.761 89.0614 561.517 88.5008V101.633H559.726V87.2932H562.746L569.261 98.5713C569.549 99.0888 569.851 99.707 570.167 100.426V87.2932Z" fill="white"/>
<path d="M584.04 100.189H592.927V101.633H582.249V87.2932H592.862V88.738H584.04V93.5468H592.215V94.97H584.04V100.189Z" fill="white"/>
</svg>
