<svg width="118" height="86" viewBox="0 0 118 86" fill="none" xmlns="http://www.w3.org/2000/svg">
<path fill-rule="evenodd" clip-rule="evenodd" d="M42.3301 0C51.9031 1.15932e-05 59.8529 1.84676 66.1794 5.54017C72.5061 9.23368 77.1679 14.2286 80.1647 20.5244C83.1615 26.7362 84.6602 33.8294 84.6602 41.8039C84.6602 49.8624 82.9116 56.7875 79.4153 62.5796C75.9191 68.2877 70.7581 72.6627 63.932 75.6846H86.5333V75.7329H105.246V13.0617H90.5379C90.5364 13.0587 89.1781 10.422 86.7694 7.82034C84.3593 5.21724 80.414 2.65951 80.414 2.65951H104.256C109.126 2.65951 112.634 3.70414 114.78 5.79282C116.927 7.88155 118 10.8894 118 14.8162V86H42.3301C28.012 86 17.3567 82.1385 10.3641 74.4158C3.45479 66.609 6.78946e-06 56.1581 0 43.063C-7.7389e-10 34.6687 1.45702 27.2399 4.37053 20.7763C7.36734 14.3127 12.0292 9.23368 18.3558 5.54017C24.6824 1.84676 32.6738 0 42.3301 0ZM42.3301 10.7031C35.504 10.7031 29.9679 11.92 25.7224 14.3543C21.477 16.7047 18.3555 20.2727 16.3577 25.0574C14.4431 29.7582 13.4859 35.7601 13.4859 43.063C13.4859 50.366 14.4431 56.4098 16.3577 61.1945C18.3555 65.8953 21.477 69.4212 25.7224 71.7716C29.9679 74.1221 35.504 75.2969 42.3301 75.2969C49.156 75.2969 54.6917 74.122 58.9371 71.7716C63.1826 69.4212 66.2629 65.8953 68.1775 61.1945C70.1754 56.4098 71.1743 50.366 71.1743 43.063C71.1743 35.7601 70.1753 29.7582 68.1775 25.0574C66.2629 20.2727 63.1826 16.7047 58.9371 14.3543C54.6917 11.92 49.1561 10.7031 42.3301 10.7031Z" fill="white"/>
</svg>
