<svg width="115" height="133" viewBox="0 0 115 133" fill="none" xmlns="http://www.w3.org/2000/svg">
<path d="M108.972 71.9298C108.972 69.3048 108.924 68.7863 108.794 68.4477C108.568 67.8611 108.149 67.398 107.639 67.1273C107.568 67.0899 107.389 67.0081 106.854 66.9158C106.289 66.8184 105.544 66.7415 104.36 66.6198C102.239 66.4017 100.471 66.2211 99.0952 65.9666C97.7441 65.7166 96.3307 65.3264 95.1688 64.4159C92.8391 62.5886 91.6676 59.6458 92.0502 56.7187C92.24 55.2682 92.9515 53.9915 93.7316 52.8372C94.5256 51.6627 95.6486 50.2551 97.0005 48.5563C98.6194 46.522 98.8951 46.1019 99.0013 45.7603C99.1892 45.1556 99.1561 44.4971 98.9121 43.9182C98.7748 43.5934 98.4636 43.2046 96.6577 41.3478L91.9281 36.4842C91.0868 35.6191 90.5498 35.0753 90.1152 34.6844C89.701 34.3119 89.5263 34.2143 89.453 34.1816C88.9319 33.9494 88.3509 33.9211 87.8138 34.097C87.7402 34.1212 87.5559 34.1976 87.1093 34.5246C86.6397 34.8687 86.0536 35.3565 85.132 36.1317C83.4807 37.5208 82.1112 38.678 80.9661 39.4963C79.8477 40.2953 78.5807 41.0466 77.1195 41.2491C76.8781 41.2825 76.5849 41.3605 76.1285 41.4935C75.7458 41.605 75.1262 41.7937 74.5316 41.907C73.9209 42.0233 73.0415 42.1251 72.0893 41.8835C71.0635 41.6229 70.1935 41.0226 69.5343 40.1542L69.5296 40.1589L45.6752 9.30431L12.0986 50.8072H35.3801L35.4458 126.877H62.2921C63.4836 126.877 64.2329 126.874 64.8048 126.835C65.3467 126.797 65.5319 126.737 65.6032 126.708C66.1318 126.493 66.5876 126.079 66.8666 125.524C66.9133 125.43 66.996 125.219 67.0874 124.659C67.1838 124.068 67.2602 123.291 67.3786 122.074C67.5911 119.889 67.7669 118.084 68.0126 116.68C68.2531 115.306 68.6257 113.883 69.4968 112.709C71.2647 110.328 74.1703 109.073 77.1195 109.481C78.5806 109.683 79.8478 110.435 80.9661 111.233C82.1112 112.052 83.4807 113.209 85.132 114.598C86.0539 115.374 86.6396 115.861 87.1093 116.205C87.5563 116.533 87.7401 116.609 87.8138 116.633C88.3511 116.809 88.9317 116.78 89.453 116.548C89.5264 116.515 89.7056 116.423 90.1199 116.05C90.5545 115.659 91.0867 115.111 91.9281 114.246L96.6577 109.382C98.4651 107.524 98.775 107.136 98.9121 106.812C99.1562 106.232 99.1894 105.574 99.0013 104.97C98.895 104.628 98.6185 104.207 97.0005 102.174C95.6497 100.476 94.5299 99.071 93.7363 97.8973C92.9561 96.7431 92.245 95.4662 92.0549 94.0158C91.6715 91.0881 92.8387 88.1463 95.1688 86.3186C96.3306 85.4077 97.7441 85.0179 99.0952 84.7679C100.471 84.5134 102.239 84.3328 104.36 84.1147C105.544 83.993 106.289 83.9161 106.854 83.8186C107.388 83.7266 107.568 83.6446 107.639 83.6072C108.149 83.3365 108.568 82.8735 108.794 82.2867C108.924 81.9483 108.972 81.4318 108.972 78.8047V71.9298ZM77.2275 75.3649C77.2267 65.8966 70.5076 58.1533 61.8365 56.7281V93.997C70.5075 92.5711 77.2275 84.8334 77.2275 75.3649ZM82.9997 75.3649C82.9997 88.9016 72.3031 100.012 58.948 100.012H56.0643V50.7226H58.948C72.3026 50.7226 82.9989 61.8289 82.9997 75.3649ZM114.74 80.3413C114.725 81.8275 114.639 83.1682 114.181 84.3591C113.465 86.221 112.105 87.7744 110.339 88.7105C109.514 89.1472 108.67 89.3605 107.836 89.5046C107.03 89.6436 106.055 89.7432 104.947 89.8571C102.727 90.0853 101.235 90.2423 100.143 90.4444C99.0273 90.651 98.758 90.8398 98.7289 90.8627C98.037 91.4056 97.6523 92.3184 97.7755 93.2639C97.7854 93.3398 97.8666 93.6966 98.5176 94.6596C99.1553 95.603 100.107 96.8051 101.519 98.5787C102.818 100.211 104.003 101.624 104.511 103.254C105.102 105.157 105.003 107.216 104.229 109.053C103.564 110.629 102.241 111.918 100.791 113.409L96.0659 118.273C95.278 119.083 94.5872 119.79 93.9759 120.34C93.3442 120.909 92.652 121.441 91.8013 121.821C89.9737 122.635 87.9116 122.741 86.0103 122.117C85.1254 121.826 84.3836 121.368 83.6995 120.867C83.037 120.381 82.2796 119.741 81.4169 119.015C79.6914 117.564 78.5274 116.586 77.6126 115.933C77.169 115.616 76.8533 115.429 76.6263 115.317C76.4362 115.224 76.3462 115.202 76.3304 115.2C75.5127 115.086 74.6657 115.428 74.1277 116.153C74.0882 116.207 73.8982 116.519 73.6956 117.676C73.497 118.811 73.3443 120.354 73.1226 122.634C73.0115 123.776 72.9181 124.77 72.7844 125.589C72.6463 126.435 72.4394 127.284 72.0236 128.113C71.1291 129.895 69.6238 131.303 67.7731 132.055C66.9073 132.407 66.0445 132.538 65.1993 132.596C64.3843 132.652 63.4048 132.647 62.2921 132.647H29.6783L29.6173 56.5824H0L45.7832 0L73.7332 36.1552C73.9267 36.1048 74.1698 36.0498 74.5175 35.9485C74.978 35.8143 75.6263 35.6272 76.3257 35.5302C76.3257 35.5303 76.4155 35.5164 76.6263 35.4128C76.8533 35.301 77.169 35.1141 77.6126 34.7972C78.5275 34.1435 79.6911 33.1664 81.4169 31.7145C82.2796 30.9888 83.037 30.3484 83.6995 29.8631C84.3835 29.3622 85.1255 28.904 86.0103 28.6131C87.9116 27.9886 89.9737 28.0949 91.8013 28.9091C92.6521 29.2884 93.3442 29.8212 93.9759 30.3894C94.5873 30.9394 95.2778 31.6514 96.0659 32.4617L100.791 37.3206C102.242 38.8123 103.564 40.1002 104.229 41.6767L104.487 42.3769C105.016 44.0266 105.028 45.811 104.511 47.4755C104.003 49.1073 102.814 50.5222 101.514 52.1558C100.103 53.9289 99.1506 55.1268 98.5129 56.0702C97.8662 57.0269 97.7864 57.3864 97.7755 57.4658C97.6517 58.4121 98.0364 59.3286 98.7289 59.8718C98.7657 59.8998 99.044 60.0868 100.143 60.29C101.236 60.4922 102.727 60.6444 104.947 60.8727C106.055 60.9866 107.03 61.0862 107.836 61.2252C108.671 61.3694 109.518 61.5862 110.344 62.024C112.108 62.96 113.465 64.5145 114.181 66.3754C114.638 67.5663 114.725 68.907 114.74 70.3932V80.3413Z" fill="white"/>
</svg>
