<svg width="131" height="131" viewBox="0 0 131 131" fill="none" xmlns="http://www.w3.org/2000/svg">
<path d="M90.2467 0.451131C91.2642 0.448287 92.2086 0.982665 92.7313 1.85617L92.7406 1.86557C92.7455 1.87371 92.7501 1.8876 92.7594 1.90317C92.7784 1.93492 92.8073 1.98244 92.844 2.04414C92.9174 2.16754 93.0272 2.35102 93.168 2.58924C93.4498 3.06571 93.8613 3.76516 94.3845 4.66156C95.4324 6.45716 96.9278 9.04668 98.7195 12.2178C102.301 18.5576 107.074 27.2455 111.837 36.6204C116.596 45.9864 121.369 56.0854 124.927 65.2429C128.435 74.2716 130.939 82.8122 130.807 88.8749C130.214 116.061 110.558 130.881 91.1297 130.881C72.109 130.88 50.0149 116.601 50.0149 89.124C50.0152 82.9109 52.54 74.2938 56.0455 65.1865C59.5948 55.9655 64.3095 45.8503 68.9989 36.4936C73.692 27.1296 78.3809 18.4783 81.896 12.1708C83.6543 9.01569 85.124 6.4411 86.1512 4.65686C86.6641 3.76596 87.0682 3.07166 87.3442 2.59864C87.4819 2.36248 87.5869 2.18077 87.6588 2.05824C87.6948 1.99697 87.7248 1.9488 87.7434 1.91726L87.7669 1.87027H87.7716C88.2891 0.993555 89.229 0.454138 90.2467 0.451131ZM21.755 1.26883e-05C22.7718 -0.00299257 23.7166 0.528033 24.2396 1.40036L24.2443 1.40506V1.40976C24.2469 1.41417 24.2534 1.42027 24.2584 1.42855C24.2681 1.44484 24.2823 1.46831 24.3006 1.49904C24.3384 1.56247 24.3931 1.65939 24.465 1.78099C24.6086 2.02387 24.8194 2.37851 25.085 2.8336C25.6176 3.74621 26.3784 5.06332 27.2877 6.6728C29.1048 9.88889 31.5283 14.2978 33.9476 19.0597C36.363 23.814 38.7985 28.9684 40.6216 33.66C42.3944 38.2224 43.7667 42.778 43.6932 46.155C43.3758 60.7006 32.7779 68.7851 22.2106 68.7861C11.9713 68.7861 0 61.0814 0 46.249C0.000167282 42.819 1.36826 38.2449 3.14208 33.6365C4.95945 28.915 7.36545 23.7573 9.74561 19.0081C12.1302 14.2501 14.5092 9.85447 16.2928 6.654C17.1846 5.05367 17.9312 3.74981 18.4533 2.843C18.7143 2.3895 18.9182 2.03194 19.0591 1.79039C19.1296 1.66968 19.1865 1.57611 19.2235 1.51314C19.2415 1.48255 19.2563 1.45878 19.2658 1.44265C19.2704 1.43487 19.2727 1.42811 19.2752 1.42385L19.2799 1.41915C19.7971 0.54297 20.7381 0.00367055 21.755 1.26883e-05ZM55.7872 89.124C55.7872 112.787 74.6345 125.109 91.1297 125.11C107.536 125.11 124.518 112.682 125.04 88.7481C125.144 83.9485 123.06 76.3682 119.549 67.3341C116.089 58.4295 111.412 48.5189 106.694 39.2332C101.982 29.9567 97.2487 21.3475 93.6941 15.0561C92.371 12.7143 91.2037 10.6997 90.2702 9.08816C89.3593 10.6826 88.2268 12.6723 86.9402 14.9809C83.4518 21.2406 78.8006 29.8152 74.1559 39.0828C69.5074 48.358 64.8869 58.2849 61.4326 67.2589C57.9348 76.3461 55.7874 84.0812 55.7872 89.124ZM5.76752 46.249C5.76752 57.2681 14.4968 63.0108 22.2106 63.0108C29.7555 63.0098 37.6749 57.3205 37.921 46.0281C37.967 43.9144 37.0189 40.3191 35.2439 35.7511C33.5192 31.3127 31.1792 26.3509 28.8047 21.6772C26.4347 17.0122 24.0524 12.6795 22.2623 9.51108C22.0987 9.22154 21.9364 8.94392 21.7832 8.67463C21.6399 8.93016 21.4896 9.19503 21.337 9.46879C19.5805 12.6208 17.238 16.9328 14.9026 21.5926C12.563 26.2607 10.2518 31.2338 8.52917 35.7088C6.76305 40.2972 5.76771 43.9893 5.76752 46.249Z" fill="white"/>
</svg>
