<svg width="114" height="138" viewBox="0 0 114 138" fill="none" xmlns="http://www.w3.org/2000/svg">
<path d="M43.24 54.8389C43.2399 51.3655 42.038 46.5101 40.0348 40.9513C38.0583 35.4663 35.406 29.5745 32.7286 24.1282C30.0551 18.6899 27.3784 13.7396 25.3683 10.1473C25.0208 9.52621 24.6911 8.94693 24.3873 8.41222C24.0836 8.94694 23.7539 9.52621 23.4063 10.1473C21.3963 13.7396 18.7196 18.6899 16.0461 24.1282C13.3686 29.5745 10.7164 35.4663 8.73988 40.9513C6.73672 46.5101 5.53482 51.3655 5.53471 54.8389C5.53471 65.5689 13.9753 74.2673 24.3873 74.2673C34.7994 74.2673 43.24 65.5689 43.24 54.8389ZM48.7747 54.8389C48.7747 68.719 37.8561 79.9711 24.3873 79.9711C10.9186 79.9711 0 68.719 0 54.8389C0.00010168 50.3031 1.50065 44.6556 3.55108 38.9655C5.62824 33.2013 8.38117 27.0973 11.1086 21.5493C13.8399 15.9935 16.5685 10.9505 18.6121 7.2982C19.6346 5.47077 20.4878 3.98783 21.0862 2.9605C21.3853 2.44715 21.6205 2.04696 21.7821 1.77407C21.8629 1.63771 21.9261 1.53335 21.9686 1.46215C21.9899 1.42655 22.0061 1.39863 22.0172 1.37998L22.0335 1.35214L22.1335 1.19617C22.6505 0.448513 23.4892 0 24.3873 0C25.3454 1.69014e-06 26.2353 0.511367 26.7399 1.35075L26.7574 1.37998C26.7686 1.39863 26.7848 1.42655 26.8061 1.46215C26.8486 1.53335 26.9118 1.63771 26.9925 1.77407C27.1542 2.04696 27.3894 2.44715 27.6884 2.9605C28.2869 3.98783 29.1401 5.47077 30.1626 7.2982C32.2062 10.9505 34.9348 15.9935 37.6661 21.5493C40.3935 27.0973 43.1464 33.2013 45.2236 38.9655C47.274 44.6556 48.7746 50.3031 48.7747 54.8389Z" fill="white"/>
<path d="M55.2955 124.504L80.6118 129.986L73.2715 101.589L47.9551 96.107L55.2955 124.504ZM79.7101 99.9179L87.0504 128.315L100.977 116.087C99.5622 116.017 98.2959 115.058 97.9215 113.612L97.7195 112.831C97.259 111.05 98.3271 109.231 100.105 108.77C101.883 108.309 103.698 109.379 104.158 111.16L104.36 111.941C104.456 112.313 104.465 112.685 104.436 113.047L106.532 111.207L99.1918 82.8104L79.7101 99.9179ZM112.457 114.869L86.1187 138L51.8894 130.587L49.8861 130.157L39.6502 90.5579L66.269 67.1791L67.5274 66.0772L69.1656 66.4274L103.764 73.9195L114 113.518L112.457 114.869ZM91.1487 109.543L90.9468 108.762C90.4876 106.981 91.555 105.162 93.3323 104.701C95.1092 104.241 96.9242 105.311 97.3854 107.091L97.5874 107.873C98.0478 109.654 96.979 111.472 95.2019 111.934C93.4239 112.395 91.6092 111.325 91.1487 109.543ZM97.0326 103.857L96.8306 103.076C96.371 101.295 97.4392 99.4768 99.2161 99.015C100.994 98.5537 102.808 99.6244 103.269 101.405L103.471 102.186C103.931 103.968 102.864 105.786 101.086 106.248C99.3082 106.708 97.4931 105.638 97.0326 103.857ZM50.5427 89.8511L75.0436 95.1546L93.8903 78.6018L69.3926 73.293L50.5427 89.8511Z" fill="white"/>
</svg>
