<svg width="132" height="132" viewBox="0 0 132 132" fill="none" xmlns="http://www.w3.org/2000/svg">
<path d="M95.2581 58.7393C97.6433 58.7393 99.9831 59.4016 102.012 60.6566C104.039 61.9108 105.675 63.7066 106.741 65.8397L130.455 113.282L130.798 114.025C131.544 115.784 131.888 117.691 131.803 119.607C131.706 121.797 131.052 123.927 129.901 125.791C128.749 127.655 127.141 129.195 125.228 130.26C123.315 131.326 121.161 131.884 118.972 131.882H71.5492C69.36 131.884 67.2061 131.325 65.2932 130.26C63.3795 129.194 61.7669 127.656 60.6154 125.791C59.4638 123.927 58.8102 121.797 58.7132 119.607C58.6164 117.42 59.0808 115.244 60.0611 113.287L83.7747 65.8397C84.8407 63.7062 86.4812 61.911 88.5089 60.6566C90.537 59.4024 92.8739 58.7396 95.2581 58.7393ZM95.2581 64.5099C93.9459 64.5101 92.6592 64.877 91.543 65.5672C90.7055 66.0853 89.9879 66.7723 89.4342 67.5784L88.9363 68.4243L65.2228 115.867C64.6824 116.945 64.4274 118.149 64.4807 119.354C64.5343 120.558 64.8946 121.73 65.5281 122.756C66.1617 123.781 67.0492 124.627 68.1019 125.213C69.1546 125.799 70.3398 126.108 71.5445 126.106H118.976C120.181 126.108 121.366 125.8 122.419 125.213C123.472 124.627 124.359 123.781 124.993 122.756C125.626 121.73 125.987 120.558 126.04 119.354C126.093 118.149 125.838 116.949 125.298 115.872L125.293 115.867L101.584 68.4243C100.998 67.2491 100.095 66.2581 98.9778 65.5672C97.861 64.8763 96.5711 64.5099 95.2581 64.5099ZM94.7086 114.81C94.8547 114.955 95.0518 115.039 95.2581 115.04V114.26L94.7086 114.81ZM95.5587 113.536L95.2581 113.475C95.1552 113.475 95.0555 113.498 94.9622 113.536L94.7086 113.705C94.5623 113.852 94.4788 114.048 94.4784 114.255L94.5395 114.556C94.5784 114.649 94.6355 114.736 94.7086 114.81L95.2581 114.26V115.04C95.3618 115.04 95.4647 115.018 95.5587 114.979L95.8123 114.81C95.8855 114.736 95.9425 114.65 95.9814 114.556L96.0424 114.255L95.9814 113.959L95.8123 113.705C95.7392 113.632 95.6522 113.575 95.5587 113.536ZM18.2748 62.1368C18.2748 60.4474 18.3781 58.766 18.5707 57.0993H10.6192C9.32709 57.1488 8.10314 57.6939 7.20001 58.6218C6.28359 59.5638 5.76752 60.8269 5.76752 62.1415C5.76801 63.4557 6.28363 64.7196 7.20001 65.6612C8.11671 66.6024 9.36714 67.1487 10.6803 67.1837H18.5707C18.3774 65.514 18.2748 63.8293 18.2748 62.1368ZM92.3743 99.5185V82.6768C92.375 81.0833 93.6655 79.7922 95.2581 79.7915C96.8513 79.7915 98.1458 81.0829 98.1465 82.6768V99.5185C98.1465 101.113 96.8518 102.408 95.2581 102.408C93.665 102.408 92.3743 101.113 92.3743 99.5185ZM34.0087 51.8645C34.0087 50.2423 33.3626 48.6754 32.2098 47.5178L28.6591 43.9699C25.6432 49.5309 24.047 55.7727 24.047 62.1368C24.047 68.4925 25.6416 74.7248 28.6497 80.2802L32.1957 76.737C33.3418 75.5904 33.986 74.0233 33.9899 72.3903C33.9947 70.7971 35.2905 69.5066 36.883 69.5098C38.4763 69.5135 39.7651 70.8105 39.7621 72.4044C39.7547 75.5535 38.5076 78.5831 36.2772 80.8159L30.2795 86.8167C30.1856 86.9266 30.0815 87.0256 29.9695 87.1222L25.8458 91.2574C24.8991 92.2048 24.3664 93.4937 24.3664 94.8335C24.3667 96.1729 24.8992 97.4576 25.8458 98.4048C26.7927 99.3517 28.0765 99.885 29.4153 99.885C30.7542 99.8849 32.038 99.3519 32.9848 98.4048L37.1883 94.1944C37.2459 94.132 37.3047 94.0722 37.3668 94.0158L43.4161 87.968C44.52 86.8601 45.8323 85.9823 47.2768 85.3835C48.7237 84.7838 50.2758 84.4734 51.842 84.4765C53.4355 84.4798 54.724 85.7769 54.721 87.3712C54.7178 88.965 53.4252 90.2538 51.8326 90.2518C51.0283 90.2502 50.2272 90.409 49.4842 90.717C48.7423 91.0248 48.0691 91.4775 47.5022 92.0469L43.9562 95.59C46.2353 96.8269 48.6349 97.8332 51.1234 98.5834C52.6492 99.0433 53.5177 100.656 53.0584 102.183C52.5987 103.71 50.9867 104.574 49.4607 104.114C46.0495 103.086 42.7827 101.641 39.7245 99.8239L37.0662 102.488C35.0371 104.518 32.2848 105.66 29.4153 105.66C26.5459 105.66 23.7936 104.518 21.7644 102.488C19.7354 100.458 18.5945 97.7044 18.5942 94.8335C18.5942 91.9623 19.7353 89.2089 21.7644 87.1785L24.418 84.5188C22.2719 80.8998 20.667 77.0044 19.6368 72.9542H10.5253C7.70804 72.8792 5.02834 71.7085 3.06224 69.6883C1.09707 67.6687 0.000485738 64.9601 0 62.1415C0 59.3219 1.09634 56.6101 3.06224 54.59C5.02833 52.5698 7.70803 51.3991 10.5253 51.3241H19.6321C20.664 47.2652 22.275 43.3617 24.4274 39.736L21.7785 37.0857C19.7499 35.0555 18.6131 32.3015 18.6129 29.4307C18.6129 26.56 19.7501 23.8061 21.7785 21.7758C23.8073 19.746 26.5603 18.6045 29.4294 18.6039C31.9413 18.6039 34.3654 19.4774 36.2912 21.0569L37.085 21.7758L39.7292 24.4309C43.3489 22.2816 47.2459 20.6734 51.2971 19.6424V10.5308C51.3721 7.71208 52.5422 5.03097 54.5613 3.06384C56.5804 1.09691 59.2908 0 62.1089 0C64.9261 0.000485993 67.6332 1.09765 69.6518 3.06384C71.6709 5.03098 72.841 7.71208 72.916 10.5308V19.6424C76.9698 20.6745 80.8671 22.2885 84.4886 24.4403L87.1469 21.7899C89.1758 19.7602 91.9287 18.6231 94.7978 18.6227C97.6668 18.6227 100.42 19.7608 102.449 21.7899C104.477 23.8198 105.618 26.5743 105.619 29.4448C105.619 31.9583 104.746 34.3834 103.167 36.3103L102.449 37.1045L99.7857 39.7595C101.458 42.5669 102.819 45.5512 103.83 48.6644C104.321 50.1809 103.49 51.8091 101.974 52.3015C100.459 52.7938 98.8312 51.9619 98.3391 50.4453C97.612 48.2052 96.6737 46.0428 95.5493 43.9793L91.9986 47.5272C90.8697 48.6512 89.0417 48.6465 87.9172 47.5178C86.7934 46.3883 86.7982 44.5595 87.9266 43.4342L93.9007 37.471C94.0069 37.3448 94.1231 37.2273 94.253 37.1185L98.372 33.0162C99.3173 32.069 99.8467 30.7835 99.8467 29.4448C99.8462 28.106 99.3181 26.8204 98.372 25.8735C97.425 24.926 96.137 24.3933 94.7978 24.3933C93.6264 24.3936 92.4975 24.8034 91.5994 25.5399L91.2283 25.8735L80.7923 36.3103C78.5639 38.5398 75.5338 39.8018 72.3758 39.8018C70.7831 39.8006 69.4921 38.5056 69.4921 36.9118C69.493 35.3187 70.7837 34.0276 72.3758 34.0265C73.9984 34.0265 75.5614 33.3768 76.7109 32.2267L80.2569 28.6742C74.6997 25.658 68.4636 24.0596 62.1042 24.0596C55.7469 24.0596 49.512 25.6552 43.9562 28.6695L47.5022 32.2314C48.6558 33.3789 50.209 34.0224 51.842 34.0265C53.4356 34.0302 54.7248 35.3267 54.721 36.9212C54.7168 38.5153 53.4213 39.8055 51.8279 39.8018C48.673 39.794 45.655 38.5424 43.4208 36.315L43.4114 36.3056L37.3762 30.2484C37.3065 30.1855 37.243 30.1169 37.1789 30.0463L33.0036 25.8594L32.6325 25.5211C31.734 24.7845 30.6012 24.3792 29.4294 24.3792C28.091 24.3797 26.8064 24.9125 25.8599 25.8594C24.9138 26.8067 24.3805 28.0915 24.3805 29.4307C24.3806 30.7701 24.9136 32.0549 25.8599 33.0021L36.2959 43.4436C38.5198 45.6766 39.7809 48.7045 39.7809 51.8645C39.7803 53.4585 38.4857 54.7497 36.8924 54.7497C35.2999 54.7488 34.0093 53.4579 34.0087 51.8645ZM62.1089 5.77055C60.795 5.77055 59.5326 6.28689 58.5911 7.20379C57.6681 8.10302 57.1233 9.3201 57.0694 10.606V18.5757C58.735 18.3831 60.4159 18.2844 62.1042 18.2844C63.7958 18.2844 65.4796 18.387 67.1484 18.5804V10.6859L67.1109 10.1924C66.9697 9.06158 66.4494 8.00585 65.6267 7.20379C64.6856 6.28693 63.4224 5.77104 62.1089 5.77055ZM100.251 114.255C100.251 115.579 99.7257 116.853 98.79 117.789C97.8542 118.725 96.5814 119.25 95.2581 119.25C93.9357 119.25 92.6662 118.724 91.7309 117.789C90.9117 116.969 90.4068 115.892 90.2937 114.748L90.2702 114.255L90.2937 113.762C90.4073 112.619 90.9124 111.545 91.7309 110.726C92.6663 109.79 93.9352 109.265 95.2581 109.265L95.7512 109.288C96.7308 109.385 97.6622 109.768 98.4236 110.392L98.79 110.726L99.1187 111.092C99.8461 111.981 100.25 113.097 100.251 114.255Z" fill="white"/>
</svg>
