<svg width="145" height="145" viewBox="0 0 145 145" fill="none" xmlns="http://www.w3.org/2000/svg">
<path d="M95.709 122.704C95.709 118.984 92.6925 115.965 88.9739 115.965H55.3081C51.5895 115.965 48.5731 118.984 48.5731 122.704V138.582H95.709V122.704ZM138.51 125.11V19.2477C138.51 11.8066 132.482 5.77525 125.044 5.77525H91.8342C91.7237 8.03697 91.2274 10.267 90.3594 12.3635C89.3685 14.7567 87.9162 16.932 86.0855 18.7637C84.2547 20.5954 82.0805 22.0484 79.6886 23.0399C78.19 23.661 76.6222 24.0912 75.0248 24.3275V33.2042H103.402C110.308 33.2042 115.905 38.8036 115.905 45.7133V76.9908C115.905 78.5853 114.615 79.8761 113.021 79.8761C111.427 79.8761 110.137 78.5853 110.137 76.9908V45.7133C110.137 41.9927 107.121 38.9747 103.402 38.9747H75.3395C75.4527 39.3 75.5797 39.6803 75.7387 40.0978C76.3056 41.5867 77.146 43.5473 78.2514 45.483C79.3681 47.4383 80.6878 49.2466 82.159 50.5346C83.6112 51.8053 85.0666 52.4518 86.5692 52.4519H96.188C97.7817 52.4519 99.0718 53.7426 99.0718 55.3371C99.0718 56.9316 97.7817 58.2224 96.188 58.2224H86.5692C83.2632 58.2223 80.5088 56.7625 78.3547 54.8766C77.0892 53.7684 75.9864 52.468 75.0248 51.1267V52.4848C75.0496 52.5633 75.076 52.6551 75.1093 52.7573C75.2471 53.1796 75.4571 53.7939 75.7387 54.5336C76.3056 56.0224 77.146 57.9831 78.2514 59.9188C79.3681 61.8741 80.6878 63.6824 82.159 64.9704C83.6112 66.2411 85.0666 66.8875 86.5692 66.8876H93.7833C95.377 66.8877 96.6671 68.1784 96.6671 69.7729C96.667 71.3674 95.377 72.6582 93.7833 72.6582H86.5692C83.2632 72.658 80.5088 71.1983 78.3547 69.3124C77.0892 68.2042 75.9864 66.9038 75.0248 65.5625V66.9205C75.0496 66.9991 75.076 67.0908 75.1093 67.1931C75.2471 67.6154 75.4571 68.2297 75.7387 68.9694C76.3056 70.4582 77.146 72.4188 78.2514 74.3546C79.3681 76.3098 80.6878 78.1181 82.159 79.4062C83.6112 80.6769 85.0666 81.3233 86.5692 81.3234H91.3786C92.9723 81.3235 94.2624 82.6142 94.2624 84.2087C94.2623 85.8032 92.9723 87.094 91.3786 87.094H86.5692C83.2632 87.0938 80.5088 85.634 78.3547 83.7482C77.0892 82.64 75.9864 81.3395 75.0248 79.9982V110.195H88.9739C95.8799 110.195 101.476 115.794 101.476 122.704V138.582H125.044V144.358H19.2376V138.582H42.8055V122.704C42.8055 115.794 48.4021 110.195 55.3081 110.195H69.2573V79.9982C68.2957 81.3395 67.1928 82.6399 65.9273 83.7482C63.7732 85.634 61.0188 87.094 57.7128 87.094H52.9034C51.3098 87.094 50.0197 85.8032 50.0196 84.2087C50.0196 82.6142 51.3098 81.3235 52.9034 81.3234H57.7128L58.2764 81.2905C59.5807 81.1493 60.8531 80.5174 62.123 79.4062C63.5942 78.1182 64.9139 76.3099 66.0306 74.3546C67.136 72.4189 67.9765 70.4582 68.5434 68.9694C68.825 68.2297 69.0349 67.6154 69.1727 67.1931C69.2061 67.0908 69.2325 66.9991 69.2573 66.9205V65.5625C68.2957 66.9038 67.1928 68.2042 65.9273 69.3124C63.7732 71.1983 61.0188 72.6582 57.7128 72.6582H50.4987C48.905 72.6582 47.615 71.3674 47.6149 69.7729C47.6149 68.1784 48.905 66.8877 50.4987 66.8876H57.7128L58.2764 66.8547C59.5807 66.7135 60.8531 66.0816 62.123 64.9704C63.5942 63.6824 64.9139 61.8741 66.0306 59.9188C67.136 57.9831 67.9765 56.0224 68.5434 54.5336C68.825 53.7939 69.0349 53.1796 69.1727 52.7573C69.2061 52.6551 69.2325 52.5633 69.2573 52.4848V51.1267C68.2957 52.468 67.1928 53.7684 65.9273 54.8766C63.7732 56.7625 61.0188 58.2224 57.7128 58.2224H48.094C46.5003 58.2224 45.2103 56.9316 45.2102 55.3371C45.2102 53.7426 46.5003 52.4519 48.094 52.4519H57.7128L58.2764 52.419C59.5807 52.2777 60.8531 51.6459 62.123 50.5346C63.5942 49.2466 64.9139 47.4383 66.0306 45.483C67.136 43.5473 67.9765 41.5867 68.5434 40.0978C68.7023 39.6803 68.8294 39.3 68.9426 38.9747H40.8799C37.1613 38.9747 34.1449 41.9927 34.1449 45.7133V76.9908C34.1449 78.5853 32.8548 79.8761 31.2611 79.8761C29.6674 79.8761 28.3773 78.5853 28.3773 76.9908V45.7133C28.3773 38.8036 33.9739 33.2042 40.8799 33.2042H69.2573V24.3275C67.6598 24.0912 66.0921 23.661 64.5934 23.0399C62.2015 22.0485 60.0273 20.5954 58.1966 18.7637C56.3658 16.932 54.9135 14.7567 53.9226 12.3635C53.0547 10.267 52.5584 8.03697 52.4478 5.77525H19.2376C11.8004 5.77525 5.77222 11.8066 5.77222 19.2477V125.11C5.77222 132.551 11.8004 138.582 19.2376 138.582V144.358L18.2466 144.334C8.08248 143.818 0 135.408 0 125.11V19.2477C0 8.61749 8.61297 0 19.2376 0H125.044C135.669 0 144.282 8.61749 144.282 19.2477V125.11C144.282 135.74 135.669 144.358 125.044 144.358V138.582C132.482 138.582 138.51 132.551 138.51 125.11ZM28.3773 98.6445V89.0206C28.3773 87.4261 29.6674 86.1353 31.2611 86.1353C32.8548 86.1353 34.1449 87.4261 34.1449 89.0206V98.6445C34.1449 100.239 32.8548 101.53 31.2611 101.53C29.6674 101.53 28.3773 100.239 28.3773 98.6445ZM110.137 98.6445V89.0206C110.137 87.4261 111.427 86.1353 113.021 86.1353C114.615 86.1353 115.905 87.4261 115.905 89.0206V98.6445C115.905 100.239 114.615 101.53 113.021 101.53C111.427 101.53 110.137 100.239 110.137 98.6445ZM58.2435 5.77525C58.3475 7.27685 58.6763 8.75552 59.2533 10.1502C59.9542 11.8432 60.9829 13.3843 62.278 14.6801C63.5731 15.9759 65.1134 17.0051 66.8056 17.7064C68.4971 18.407 70.3103 18.7684 72.141 18.7684C73.9717 18.7684 75.785 18.407 77.4764 17.7064C79.1686 17.0051 80.7089 15.9759 82.004 14.6801C83.2992 13.3843 84.3278 11.8432 85.0287 10.1502C85.6058 8.75552 85.9345 7.27685 86.0385 5.77525H58.2435Z" fill="white"/>
</svg>
