<svg width="88" height="131" viewBox="0 0 88 131" fill="none" xmlns="http://www.w3.org/2000/svg">
<path d="M81.7598 105.97C81.7599 102.629 81.1153 99.3104 79.8811 96.1304H11.0607C9.85728 96.1304 8.82594 95.3922 8.39297 94.3447C6.65855 98.0508 5.76729 101.996 5.76752 105.97V111.205H81.7598V105.97ZM81.7598 19.6753H5.76752V24.9102C5.76743 28.2511 6.40764 31.5702 7.6415 34.7502H79.8952C81.1269 31.5743 81.76 28.2531 81.7598 24.9102V19.6753ZM87.5273 24.9102C87.5277 31.509 85.5157 37.962 81.7363 43.6363C77.9605 49.3052 72.5589 53.9942 66.1011 57.2873L24.047 78.7389C18.4132 81.6118 13.8001 85.64 10.6192 90.3975C10.7632 90.3753 10.9104 90.3552 11.0607 90.3552H76.8706C74.405 86.6824 71.0805 83.4244 67.0545 80.8018C65.7189 79.9319 65.3397 78.1438 66.2091 76.8075C67.0785 75.4714 68.8657 75.092 70.2013 75.9617C75.5322 79.434 79.894 83.9345 82.9152 89.1381C83.4462 90.0527 83.9154 90.9924 84.3571 91.9388C84.402 92.0268 84.448 92.1137 84.4839 92.2066C86.4758 96.5712 87.5274 101.234 87.5273 105.97V127.995C87.5273 129.59 86.2373 130.881 84.6436 130.881C83.0499 130.881 81.7598 129.59 81.7598 127.995V116.981H5.76752V127.995C5.76752 129.59 4.47746 130.881 2.88376 130.881C1.29007 130.881 5.53165e-08 129.59 5.53165e-08 127.995V105.97C-0.00038521 99.3716 2.01169 92.9186 5.79101 87.2443C9.56688 81.5754 14.9685 76.8864 21.4263 73.5933L63.4803 52.1417C69.0966 49.2778 73.6954 45.2636 76.8753 40.5254H10.6615C13.019 44.0368 16.1598 47.1731 19.9562 49.7358C21.2774 50.6275 21.6271 52.4222 20.7358 53.7441C19.8446 55.0659 18.0507 55.4159 16.7296 54.5242C11.5672 51.0397 7.35585 46.5789 4.44306 41.4512C1.52815 36.3195 -0.000161909 30.6624 5.53165e-08 24.9102V2.88528C5.53165e-08 1.29074 1.29007 2.72456e-08 2.88376 0C4.47746 0 5.76752 1.29074 5.76752 2.88528V13.9001H81.7598V2.88528C81.7598 1.29074 83.0499 0 84.6436 0C86.2373 0 87.5273 1.29074 87.5273 2.88528V24.9102Z" fill="white"/>
</svg>
