<svg width="141" height="148" viewBox="0 0 141 148" fill="none" xmlns="http://www.w3.org/2000/svg">
<path d="M20.8405 76.9908C22.8311 77.0452 24.4024 78.7066 24.3489 80.6984C24.044 92.0498 22.8755 99.25 21.1364 104.326C19.3456 109.551 16.9998 112.341 14.9368 114.8C13.0178 117.087 11.3797 119.048 10.0334 122.977C8.63564 127.057 7.51165 133.427 7.21543 144.456C7.16102 146.448 5.50058 148.02 3.50975 147.967C1.51915 147.912 -0.0521694 146.251 0.0013264 144.259C0.306288 132.908 1.47473 125.707 3.21386 120.632C5.00463 115.407 7.35042 112.616 9.41347 110.157C11.3324 107.87 12.9706 105.91 14.3168 101.981C15.7146 97.9001 16.8386 91.5308 17.1348 80.5011C17.1892 78.5094 18.8497 76.9373 20.8405 76.9908ZM42.7834 76.9908C44.774 77.0452 46.3453 78.7066 46.2918 80.6984C45.9868 92.0498 44.8184 99.25 43.0793 104.326C41.2885 109.551 38.9427 112.341 36.8797 114.8C34.9607 117.087 33.3226 119.048 31.9763 122.977C30.5785 127.057 29.4545 133.427 29.1583 144.456C29.1039 146.448 27.4435 148.02 25.4526 147.967C23.462 147.912 21.8907 146.251 21.9442 144.259C22.2492 132.908 23.4176 125.707 25.1567 120.632C26.9475 115.407 29.2933 112.616 31.3564 110.157C33.2753 107.87 34.9135 105.91 36.2597 101.981C37.6575 97.9001 38.7815 91.5308 39.0777 80.5011C39.1321 78.5094 40.7926 76.9373 42.7834 76.9908ZM64.7263 76.9908C66.7169 77.0452 68.2882 78.7066 68.2347 80.6984C67.9297 92.0498 66.7613 99.25 65.0222 104.326C63.2314 109.551 60.8856 112.341 58.8226 114.8C56.9036 117.087 55.2655 119.048 53.9192 122.977C52.5214 127.057 51.3974 133.427 51.1012 144.456C51.0468 146.448 49.3864 148.02 47.3955 147.967C45.4049 147.912 43.8336 146.251 43.8871 144.259C44.1921 132.908 45.3605 125.707 47.0996 120.632C48.8904 115.407 51.2362 112.616 53.2993 110.157C55.2182 107.87 56.8563 105.91 58.2026 101.981C59.6004 97.9001 60.7244 91.5308 61.0206 80.5011C61.075 78.5094 62.7354 76.9373 64.7263 76.9908Z" fill="white"/>
<path d="M109.941 61.352C109.941 44.2856 96.1128 30.4505 79.0553 30.4505C61.9978 30.4505 48.1699 44.2856 48.1699 61.352H40.9558C40.9558 40.2992 58.0135 23.2326 79.0553 23.2326C100.097 23.2326 117.155 40.2992 117.155 61.352C117.155 82.4049 100.097 99.4715 79.0553 99.4715V92.2536C96.1128 92.2536 109.941 78.4185 109.941 61.352Z" fill="white"/>
<path d="M79.0553 0C80.0717 0 81.0465 0.403991 81.7653 1.1231C82.484 1.84221 82.8878 2.81753 82.8878 3.8345V15.338H75.2228V3.8345C75.2228 2.81753 75.6266 1.84221 76.3453 1.1231C77.064 0.403991 78.0388 0 79.0553 0ZM75.2228 118.87C75.2228 119.887 75.6266 120.862 76.3453 121.581C77.064 122.3 78.0388 122.704 79.0553 122.704C80.0717 122.704 81.0465 122.3 81.7653 121.581C82.484 120.862 82.8878 119.887 82.8878 118.87V107.366H75.2228V118.87ZM17.7354 61.352C17.7354 60.3351 18.1392 59.3598 18.8579 58.6406C19.5766 57.9215 20.5515 57.5175 21.5679 57.5175H33.0654V65.1866H21.5679C20.5515 65.1866 19.5766 64.7826 18.8579 64.0635C18.1392 63.3443 17.7354 62.369 17.7354 61.352ZM136.543 65.1866C137.559 65.1866 138.534 64.7826 139.253 64.0635C139.971 63.3443 140.375 62.369 140.375 61.352C140.375 60.3351 139.971 59.3598 139.253 58.6406C138.534 57.9215 137.559 57.5175 136.543 57.5175H125.045V65.1866H136.543ZM25.9523 30.676C26.4605 29.7953 27.2976 29.1527 28.2794 28.8895C29.2611 28.6263 30.3072 28.7641 31.1875 29.2726L41.1443 35.0243L37.3118 41.6657L27.3473 35.914C26.4697 35.4029 25.8306 34.5642 25.5705 33.5822C25.3104 32.6001 25.4428 31.5549 25.9523 30.676ZM126.931 93.4315C127.367 93.6873 127.849 93.8542 128.35 93.9227C128.851 93.9912 129.36 93.9599 129.849 93.8307C130.337 93.7014 130.796 93.4767 131.197 93.1696C131.599 92.8624 131.935 92.4788 132.188 92.0408C132.441 91.6029 132.604 91.1193 132.67 90.6178C132.735 90.1163 132.7 89.6069 132.568 89.1189C132.435 88.6308 132.208 88.1738 131.898 87.7742C131.588 87.3745 131.203 87.0401 130.763 86.7901L120.806 81.0384L116.974 87.6797L126.931 93.4315ZM111.118 13.4591C111.374 13.0229 111.54 12.5403 111.609 12.0393C111.677 11.5383 111.646 11.0286 111.517 10.5397C111.388 10.0508 111.163 9.59232 110.856 9.19062C110.549 8.78891 110.166 8.45193 109.728 8.19907C109.29 7.94622 108.807 7.78249 108.306 7.71731C107.804 7.65213 107.295 7.68678 106.808 7.81928C106.32 7.95178 105.863 8.1795 105.464 8.48933C105.064 8.79917 104.73 9.18499 104.48 9.6246L98.7313 19.5866L105.369 23.4211L111.118 13.4591ZM48.3953 8.22117C49.2756 7.71271 50.3216 7.57492 51.3034 7.83811C52.2852 8.1013 53.1223 8.74392 53.6305 9.6246L59.3793 19.5866L52.7414 23.4211L46.9926 13.4514C46.4893 12.5721 46.3543 11.5292 46.6171 10.5506C46.88 9.57201 47.5193 8.72961 48.3953 8.22117ZM104.48 113.087C104.73 113.527 105.064 113.913 105.464 114.222C105.863 114.532 106.32 114.76 106.808 114.892C107.295 115.025 107.804 115.06 108.306 114.994C108.807 114.929 109.29 114.766 109.728 114.513C110.166 114.26 110.549 113.923 110.856 113.521C111.163 113.119 111.388 112.661 111.517 112.172C111.646 111.683 111.677 111.174 111.609 110.672C111.54 110.171 111.374 109.689 111.118 109.253L105.369 99.2906L98.7313 103.125L104.48 113.087ZM130.763 35.914C131.203 35.664 131.588 35.3296 131.898 34.9299C132.208 34.5303 132.435 34.0733 132.568 33.5852C132.7 33.0972 132.735 32.5878 132.67 32.0863C132.604 31.5848 132.441 31.1012 132.188 30.6633C131.935 30.2253 131.599 29.8417 131.197 29.5345C130.796 29.2274 130.337 29.0027 129.849 28.8734C129.36 28.7442 128.851 28.7129 128.35 28.7814C127.849 28.8499 127.367 29.0168 126.931 29.2726L116.974 35.0243L120.806 41.6657L130.763 35.914Z" fill="white"/>
</svg>
