<svg width="113" height="114" viewBox="0 0 113 114" fill="none" xmlns="http://www.w3.org/2000/svg">
<path d="M46.9724 0.560046C49.9527 -0.4023 52.4296 0.0622798 54.055 0.569444L54.0878 0.578842C56.8975 1.49136 60.5801 2.4133 63.965 3.33724C65.6149 3.78763 67.1995 4.24247 68.4832 4.6812C69.124 4.90021 69.7409 5.13119 70.2773 5.37667C70.6328 5.53935 71.0959 5.76621 71.5313 6.08154L71.9493 6.42928L72.2311 6.72532C79.4663 15.6342 97.6476 38.0965 107.837 63.8152C113.612 75.079 114.244 83.6684 111.035 90.3513L110.34 91.6671C108.509 94.8412 105.606 96.9511 102.919 98.4714C93.5534 103.773 79.9031 108.41 67.6753 110.257C61.562 111.18 55.6262 111.436 50.6687 110.633C46.971 110.033 43.468 108.779 40.9559 106.46C28.0224 116.052 14.0388 113.629 6.62319 108.612C5.3029 107.718 4.95611 105.921 5.84824 104.599C6.74214 103.276 8.54183 102.929 9.8639 103.824C15.7892 107.831 28.1167 110.078 39.4765 100.252L40.0025 99.8906C40.5578 99.5923 41.2007 99.4817 41.8342 99.5851C42.6793 99.7232 43.4178 100.229 43.8538 100.967C44.9286 102.784 47.3715 104.239 51.5939 104.923C55.7339 105.594 61.0124 105.419 66.8112 104.543C78.4081 102.791 91.3767 98.3612 100.073 93.4386C102.403 92.1203 104.259 90.6385 105.333 88.7771L105.338 88.7724C107.928 84.2894 108.404 77.5304 102.642 66.3434C102.598 66.2581 102.56 66.1694 102.525 66.0802C92.8305 41.5276 75.4387 19.8529 68.0135 10.7055C67.9758 10.6866 67.9295 10.6611 67.8726 10.635C67.5813 10.5018 67.1639 10.339 66.6139 10.151C65.5149 9.77546 64.0798 9.36187 62.4432 8.91513C59.2651 8.04764 55.3157 7.05197 52.336 6.08624L51.5845 5.89358C50.788 5.73484 49.8469 5.70789 48.7477 6.06274C47.2495 6.54676 45.084 7.86432 42.4777 11.3493C42.0282 11.9495 41.4322 12.5952 40.8808 13.1819C40.2885 13.8121 39.6921 14.4337 39.0773 15.118C37.8277 16.5089 36.7976 17.8541 36.2639 19.1029C35.7711 20.2568 35.8092 21.0326 36.217 21.7391C36.7239 22.6166 38.1251 23.9548 41.698 25.3386C43.0109 25.6919 43.635 25.9725 45.2863 26.0576C47.0788 26.15 50.0221 25.9683 55.4358 24.9627L55.464 24.958C57.8879 24.5358 62.6898 25.1525 65.9047 30.7004L71.1509 38.313H71.1462C71.9089 39.4096 72.3922 40.6756 72.5505 42.0018L72.5552 42.0206C73.0504 46.4036 73.2282 50.6029 73.889 54.7788C74.5413 58.8996 75.5552 62.0449 77.2331 63.9797C78.1972 65.0915 78.1734 66.7503 77.1767 67.833C76.1799 68.9144 74.5303 69.074 73.3442 68.2042C70.3088 65.9783 64.6471 63.4514 58.2585 63.4534C52.0248 63.4558 44.9398 65.8572 38.6921 73.7257C37.6996 74.9745 35.8833 75.1827 34.6342 74.1909C33.3846 73.1977 33.1765 71.3764 34.1692 70.1262C36.0755 67.7256 38.0755 65.7354 40.1293 64.1019C34.092 59.894 26.958 57.4659 19.8725 57.8238C15.9061 58.0243 13.6634 58.4743 11.7426 59.3604C9.76793 60.2715 7.89765 61.7488 4.82906 64.5248C3.64531 65.5957 1.81799 65.5024 0.747647 64.318C-0.32237 63.1337 -0.234038 61.3053 0.949604 60.2345C4.01281 57.4633 6.46361 55.4264 9.32379 54.1068C12.2365 52.7635 15.3457 52.2627 19.5813 52.0486C28.5715 51.5944 37.3338 54.8337 44.4127 60.0559C44.7139 60.2782 44.9533 60.5508 45.1407 60.8501C49.523 58.5849 54.0052 57.6705 58.2538 57.6688C62.1432 57.6673 65.7964 58.424 68.9622 59.5343C68.64 58.2561 68.3801 56.9589 68.1779 55.681C67.5055 51.4315 67.2365 46.46 66.8112 42.6879L66.6749 42.1193C66.606 41.9381 66.5131 41.7653 66.4025 41.6071L66.3931 41.593L61.1235 33.9475C61.0734 33.8748 61.0258 33.7989 60.9826 33.7219C59.148 30.4532 56.876 30.5847 56.455 30.6581L56.4503 30.6534C50.8791 31.6866 47.4371 31.9588 44.9904 31.8329C42.4833 31.7036 40.9845 31.1251 40.0354 30.8789C39.9308 30.8518 39.8262 30.8189 39.7254 30.7802C35.5826 29.1922 32.6943 27.2002 31.2103 24.6291C29.6241 21.88 29.9809 19.0908 30.9473 16.8285C31.8737 14.6608 33.4484 12.7322 34.7751 11.2553C35.4482 10.5061 36.1365 9.79096 36.6726 9.22057C37.2483 8.60795 37.6245 8.18442 37.8514 7.88131C40.9477 3.74152 44.0221 1.51317 46.9724 0.560046Z" fill="white"/>
</svg>
