<svg width="111" height="102" viewBox="0 0 111 102" fill="none" xmlns="http://www.w3.org/2000/svg">
<path d="M39.175 9.72253C42.5146 9.72253 44.8499 12.2983 46.4126 14.8023C48.0811 17.4761 49.538 21.1266 50.8557 25.2485C52.8401 31.4567 54.6492 39.1829 56.3977 47.1982L59.8639 63.3351C61.599 71.2869 63.3561 78.7682 65.2604 84.7256C66.535 88.7131 67.8139 91.8226 69.0976 93.8795C70.487 96.1054 71.3241 96.2385 71.4412 96.2385C73.2071 96.2378 74.9133 95.0518 76.6404 91.6145C78.3367 88.2379 79.5685 83.5916 80.7265 78.5979C81.8445 73.7772 82.9046 68.5559 84.2678 64.6367C84.9509 62.6732 85.7949 60.7672 86.9309 59.3079C88.0999 57.8063 89.8298 56.4884 92.1818 56.4884H110.616V62.2637H92.1818C92.1545 62.2637 92.1232 62.2601 92.0455 62.306C91.9439 62.3661 91.7506 62.517 91.4866 62.8558C90.9304 63.5702 90.3339 64.7725 89.7207 66.5352C88.4915 70.0689 87.5349 74.7882 86.3485 79.9043C85.2026 84.845 83.8445 90.1336 81.7974 94.2085C79.7804 98.2226 76.5873 102.008 71.4412 102.009C68.1016 102.009 65.7663 99.438 64.2036 96.934C62.5351 94.2602 61.0782 90.6096 59.7606 86.4878C57.7761 80.2797 55.967 72.5532 54.2185 64.5381L50.7523 48.4012C49.0172 40.4494 47.2601 32.9681 45.3558 27.0107C44.0812 23.0232 42.8024 19.9137 41.5187 17.8568C40.1291 15.6305 39.2921 15.4978 39.175 15.4978C37.6517 15.4986 35.887 16.7564 34.0087 21.071C32.2312 25.1543 30.9164 30.7199 29.6079 36.6204C28.3352 42.3596 27.0632 48.4511 25.3574 53.0674C24.5042 55.3759 23.456 57.5628 22.0791 59.2139C20.6604 60.9145 18.6931 62.2631 16.1331 62.2637H0V56.4884H16.1331C16.4528 56.488 16.9326 56.3698 17.6454 55.5157C18.4013 54.6097 19.1752 53.1405 19.9421 51.0656C21.476 46.9152 22.6527 41.3192 23.9719 35.3705C25.2559 29.5802 26.6762 23.4485 28.7155 18.7637C30.6532 14.3129 33.7867 9.72342 39.175 9.72253ZM80.0784 36.2727V22.5136H67.1578C65.5657 22.5125 64.2751 21.2213 64.2741 19.6283C64.2741 18.0345 65.5651 16.7394 67.1578 16.7384H80.0784V2.88528C80.0784 1.29074 81.3685 0 82.9622 0C84.5559 0 85.8459 1.29074 85.8459 2.88528V16.7384H98.7665C100.359 16.7394 101.65 18.0345 101.65 19.6283C101.649 21.2213 100.359 22.5125 98.7665 22.5136H85.8459V36.2727C85.8459 37.8672 84.5559 39.1627 82.9622 39.1627C81.3685 39.1627 80.0784 37.8672 80.0784 36.2727Z" fill="white"/>
</svg>
