<svg width="131" height="93" viewBox="0 0 131 93" fill="none" xmlns="http://www.w3.org/2000/svg">
<path d="M125.044 58.5701C125.044 55.5707 125.039 53.614 124.842 52.1699C124.658 50.8141 124.352 50.346 124.068 50.0647C123.779 49.7793 123.292 49.4737 121.907 49.2893C120.44 49.0941 118.458 49.0873 115.43 49.0873H46.6521C34.2213 49.087 22.8248 46.6011 14.4282 42.4474C11.1272 40.8142 8.15804 38.8314 5.77692 36.5594V68.8848C5.7773 72.7994 9.25558 77.2291 16.9362 80.8488C19.3318 81.9777 22.0445 82.9736 25.0098 83.8093V74.0397C25.0098 72.443 26.3024 71.1451 27.8983 71.1451C29.4938 71.1456 30.7867 72.4433 30.7867 74.0397V85.1579C35.6544 86.0865 41.008 86.6145 46.6521 86.6146H50.015V77.1318C50.015 75.535 51.3122 74.2418 52.9081 74.2418C54.5032 74.2428 55.7966 75.5357 55.7966 77.1318V86.6146H75.0248V77.1318C75.0248 75.5357 76.3182 74.2428 77.9132 74.2418C79.5091 74.2418 80.8064 75.535 80.8064 77.1318V86.6146H100.035V77.1318C100.035 75.5353 101.328 74.2423 102.923 74.2418C104.519 74.2418 105.812 75.535 105.812 77.1318V86.6146H115.43C118.458 86.6146 120.44 86.6078 121.907 86.4126C123.292 86.2282 123.779 85.9226 124.068 85.6372C124.352 85.356 124.658 84.8878 124.842 83.532C125.039 82.0879 125.044 80.1311 125.044 77.1318V58.5701ZM43.7637 33.6929C43.7637 30.5126 43.7526 28.5012 43.496 27.0342C43.2701 25.7448 42.918 25.2648 42.4298 24.8961V24.8914C41.824 24.4364 41.304 24.2849 40.3633 24.3557C39.1818 24.4445 37.662 24.8628 35.0889 25.5962C31.572 26.6017 28.813 28.0012 26.9965 29.5294C25.1779 31.0597 24.5357 32.4985 24.5355 33.6929C24.5355 35.4596 26.0427 37.8381 30.2607 39.9474C33.7 41.6672 38.4019 42.8811 43.7637 43.2086V33.6929ZM49.5453 43.2509C60.1092 42.8987 69.4951 40.6414 76.3211 37.2642C83.9456 33.4919 87.532 28.8212 87.532 24.5436C87.532 20.2661 83.9455 15.5955 76.3211 11.823C68.8783 8.14061 58.3907 5.77995 46.6521 5.77995C34.9144 5.7802 24.4303 8.14088 16.9879 11.823C9.36307 15.5956 5.77693 20.266 5.77692 24.5436C5.77692 28.8213 9.36308 33.4918 16.9879 37.2642C17.9899 37.76 19.0502 38.224 20.1582 38.6693C19.2787 37.1737 18.7538 35.5152 18.7538 33.6929C18.7541 30.223 20.6604 27.3042 23.2767 25.1028C25.8963 22.8989 29.4656 21.1909 33.5014 20.0372L36.883 19.1161C37.9587 18.856 38.9792 18.6614 39.9312 18.5898C41.8049 18.4491 43.5376 18.7634 45.2009 19.7928L45.9101 20.2768L45.9148 20.2815C47.9068 21.7867 48.7937 23.7837 49.1883 26.038C49.5522 28.1173 49.5453 30.7241 49.5453 33.6929V43.2509ZM93.309 24.5436C93.309 32.225 87.0959 38.3829 78.8808 42.4474C78.2812 42.744 77.6644 43.028 77.035 43.3073H115.43C118.296 43.3073 120.732 43.2989 122.668 43.5564C124.685 43.825 126.592 44.426 128.135 45.9529C129.682 47.4842 130.294 49.3832 130.568 51.3946C130.829 53.3186 130.821 55.737 130.821 58.5701V77.1318C130.821 79.9649 130.829 82.3833 130.568 84.3074C130.294 86.3188 129.682 88.2177 128.135 89.749C126.592 91.276 124.685 91.877 122.668 92.1455C120.732 92.4031 118.296 92.3946 115.43 92.3946H46.6521C34.2389 92.3944 22.8591 90.0297 14.4752 86.0789C6.3176 82.2347 0.00036498 76.3529 0 68.8848V27.6357C0.000146626 27.293 0.0689572 26.9679 0.178474 26.663C0.0724974 25.9693 0 25.2646 0 24.5436C1.48467e-05 16.8623 6.21305 10.7045 14.4282 6.63989C22.8248 2.48601 34.2213 0.000250156 46.6521 0C59.084 0 70.4836 2.48558 78.8808 6.63989C87.0959 10.7045 93.3089 16.8623 93.309 24.5436Z" fill="white"/>
</svg>
