<svg width="88" height="131" viewBox="0 0 88 131" fill="none" xmlns="http://www.w3.org/2000/svg">
<path d="M51.1892 60.276C58.8437 58.005 64.1668 59.8313 67.5665 62.6349C69.1945 63.9778 70.2871 65.4658 70.9716 66.6104C71.3157 67.1859 71.565 67.6869 71.7325 68.0577C71.816 68.2428 71.8789 68.3972 71.925 68.5136C71.9479 68.5713 71.967 68.6206 71.9814 68.6592C71.9886 68.6786 71.9951 68.6967 72.0002 68.7109C72.0027 68.718 72.0075 68.7239 72.0096 68.7297V68.7391L72.0143 68.7438L86.898 111.445L86.9027 111.45C86.9047 111.455 86.9097 111.471 86.9121 111.478C86.9168 111.492 86.9201 111.511 86.9262 111.53C86.9389 111.568 86.9555 111.617 86.9732 111.675C87.0095 111.795 87.0551 111.958 87.1047 112.155C87.2037 112.548 87.3199 113.093 87.4053 113.752C87.5746 115.061 87.6322 116.89 87.147 118.907C86.1191 123.178 82.8293 127.581 75.1657 129.856C67.5108 132.128 62.1838 130.305 58.7837 127.502C57.156 126.159 56.0632 124.671 55.3786 123.526C55.0345 122.951 54.7853 122.45 54.6178 122.079C54.5338 121.893 54.4714 121.735 54.4252 121.619C54.4023 121.561 54.3831 121.511 54.3688 121.473L54.3407 121.402L54.336 121.393L39.4522 78.6919L39.4475 78.6778C39.4456 78.6724 39.445 78.6656 39.4428 78.659C39.438 78.6448 39.4304 78.6269 39.424 78.6073C39.4111 78.568 39.3952 78.517 39.377 78.457C39.3407 78.337 39.2951 78.1747 39.2455 77.9776C39.1465 77.5842 39.0302 77.0389 38.9449 76.3799C38.7757 75.0714 38.718 73.2414 39.2032 71.225C40.2315 66.9536 43.5248 62.5504 51.1892 60.276ZM5.37209e-05 88.7152V77.019C5.37209e-05 72.5364 -0.0160075 69.889 0.507295 67.3247C1.02475 64.8064 1.9241 62.3663 3.17501 60.0786L3.17971 60.0739C4.44608 57.7658 6.19037 55.682 9.15858 52.0947L9.16328 52.09L11.9014 48.7912C13.4407 46.9294 14.0599 46.1724 14.5316 45.4455C15.7948 43.4982 16.5589 41.3306 16.7813 39.1016C17.0016 36.8933 16.6844 34.6642 15.8514 32.5698C15.4318 31.6366 14.9661 30.7227 14.4705 29.8208C12.9084 29.4859 11.4504 28.8826 10.2106 27.7156L10.2059 27.7109C8.69013 26.2784 7.86508 24.0691 7.38793 22.0672C6.88254 19.9458 6.64586 17.5165 6.64586 15.1454C6.64594 12.7738 6.88225 10.3451 7.38793 8.22354C7.86497 6.22212 8.69078 4.01706 10.2059 2.58456C11.7873 1.09002 13.7268 0.50578 15.7856 0.244388C17.7779 -0.00837838 20.2898 3.26524e-05 23.2721 3.27702e-05H62.2405C65.2193 3.27702e-05 67.7301 -0.00828298 69.7223 0.244388C71.7812 0.505792 73.7188 1.08923 75.3019 2.57986L75.3066 2.58456C76.8221 4.017 77.6475 6.22194 78.1246 8.22354C78.6303 10.3451 78.8666 12.7738 78.8667 15.1454C78.8667 17.5166 78.6301 19.9458 78.1246 22.0672C77.6475 24.0691 76.8224 26.2784 75.3066 27.7109L75.3019 27.7156C74.5735 28.4012 73.7666 28.8847 72.9113 29.2428C71.9354 31.0136 71.5245 31.7841 71.2299 32.5134C70.3815 34.6226 70.0592 36.8706 70.2812 39.0969C70.4758 41.0474 71.0845 42.9529 72.08 44.703L72.5309 45.4408L72.5356 45.4502C72.7691 45.8123 73.0415 46.1804 73.4467 46.6907L75.1657 48.7819L75.1704 48.7912C76.5071 50.4075 78.1589 51.8885 80.0268 53.6831C81.797 55.3838 83.7383 57.3477 85.1086 59.6463C85.9249 61.0157 85.477 62.7909 84.1082 63.6077C82.7402 64.4236 80.9704 63.9744 80.1536 62.6067C79.218 61.0372 77.7866 59.5343 76.0299 57.8465C74.3718 56.2535 72.3357 54.4212 70.7227 52.4707C69.2705 50.728 68.3846 49.6668 67.6839 48.5798C65.9351 45.8805 64.8527 42.8324 64.5371 39.6702C64.2215 36.5043 64.6857 33.3142 65.8804 30.3471C65.8912 30.3204 65.9023 30.2939 65.9133 30.2672C64.7841 30.2878 63.5579 30.2954 62.2405 30.2954H23.2721C22.5355 30.2954 21.8277 30.2799 21.1492 30.2766C21.16 30.3014 21.172 30.3267 21.1821 30.3518C22.3779 33.3201 22.8413 36.5075 22.5253 39.6749C22.2094 42.8421 21.1275 45.8914 19.3739 48.5939C18.6766 49.6683 17.7919 50.7247 16.3445 52.4754L16.3398 52.4801L13.6016 55.7695L13.6063 55.7742C11.2684 58.5997 9.94768 60.2064 9.03647 61.5541L8.23803 62.8511C7.50259 64.1963 6.92922 65.5975 6.51905 67.0333L6.1621 68.4807C5.78248 70.3413 5.76758 72.3088 5.76758 77.019V88.7152C5.76758 97.4733 5.77604 103.723 6.48147 108.47C7.08379 112.524 8.15656 115.159 9.95702 117.15L10.7742 117.967L11.6948 118.729C13.9334 120.408 16.8069 121.407 21.2056 121.962C26.3229 122.607 33.1002 122.61 42.7586 122.61C44.3515 122.611 45.6424 123.906 45.6424 125.5C45.6412 127.093 44.3508 128.384 42.7586 128.385C33.2593 128.385 26.0503 128.391 20.487 127.69C14.8322 126.977 10.4869 125.491 6.90417 122.248C3.25256 118.947 1.57534 114.705 0.775006 109.321C-0.00809535 104.051 5.31154e-05 97.2934 5.37209e-05 88.7152ZM59.7841 119.48C59.7855 119.484 59.7869 119.49 59.7888 119.495C59.8039 119.533 59.8341 119.604 59.878 119.701C59.9671 119.898 60.1131 120.2 60.3289 120.561C60.7659 121.292 61.4553 122.22 62.4518 123.042C64.3029 124.569 67.62 126.072 73.5219 124.321C79.4143 122.572 81.0406 119.628 81.5391 117.559C81.8168 116.405 81.7906 115.313 81.6847 114.495C81.6325 114.091 81.5627 113.77 81.5109 113.564C81.4853 113.462 81.4614 113.391 81.4499 113.353C81.4442 113.334 81.4409 113.321 81.4405 113.32L75.8421 97.2629L54.2702 103.663L59.7841 119.48ZM63.8984 67.0897C62.0473 65.5628 58.7303 64.0602 52.8283 65.8116C46.9344 67.5606 45.3092 70.5085 44.8111 72.5783C44.534 73.7307 44.5599 74.8199 44.6655 75.6375C44.7176 76.0401 44.7875 76.3621 44.8393 76.5679C44.865 76.6702 44.8887 76.7458 44.9003 76.7841C44.9057 76.8016 44.9093 76.811 44.9097 76.8122L52.3633 98.2028L73.9399 91.8025L66.5708 70.6658C66.5695 70.6624 66.5684 70.6575 66.5661 70.6517L66.5614 70.647C66.5465 70.6092 66.5164 70.5334 66.4722 70.4355C66.3833 70.2388 66.2372 69.9367 66.0213 69.5756C65.5841 68.8445 64.8957 67.9124 63.8984 67.0897ZM23.2721 5.77058C20.1348 5.77058 18.0534 5.77655 16.5089 5.97265C15.0322 6.1603 14.4891 6.47933 14.1699 6.7809C13.9147 7.02208 13.4088 7.84949 13.0005 9.56279C12.6208 11.1557 12.4182 13.1221 12.4181 15.1454C12.4181 17.1681 12.6211 19.1351 13.0005 20.728C13.4071 22.4338 13.909 23.2646 14.1652 23.5099L14.4611 23.7401C14.8212 23.9665 15.4073 24.1775 16.5136 24.3181C18.0581 24.5142 20.1383 24.5202 23.2721 24.5202H62.2405C65.3771 24.5202 67.4555 24.514 68.999 24.3181C70.4737 24.1308 71.0227 23.8153 71.3473 23.5099C71.6034 23.2653 72.1052 22.435 72.5121 20.728C72.8915 19.1351 73.0992 17.1682 73.0992 15.1454C73.0991 13.1221 72.8918 11.1557 72.5121 9.56279C72.1058 7.8584 71.6038 7.03155 71.3473 6.7856L71.0514 6.55534C70.6913 6.32879 70.1064 6.11332 68.999 5.97265C67.4544 5.77655 65.3744 5.77058 62.2405 5.77058H23.2721Z" fill="white"/>
</svg>
