<svg width="87" height="135" viewBox="0 0 87 135" fill="none" xmlns="http://www.w3.org/2000/svg">
<path d="M40.1913 0C38.4832 0 37.0997 1.28283 37.0997 2.86666V22.9348H30.9164V2.86666C30.9164 1.28289 29.5329 0 27.8247 0C26.1167 0 24.7331 1.28283 24.7331 2.86666V22.9348H18.5498V2.86666C18.5498 1.28289 17.1663 0 15.4582 0C13.7501 0 12.3665 1.28283 12.3665 2.86666V22.9348H6.18327V2.86666C6.18327 1.28289 4.79977 0 3.09164 0C1.38357 0 0 1.28283 0 2.86666V37.2666C0.0154582 44.0391 5.12437 49.8799 12.2661 51.2846L9.49141 125.833H9.49914C9.41412 128.169 10.3493 130.434 12.0961 132.111C13.8429 133.788 16.2544 134.734 18.7663 134.734H24.5167C27.0286 134.734 29.4401 133.788 31.1869 132.111C32.9337 130.434 33.8766 128.169 33.7839 125.84L31.0169 51.2855C38.1585 49.8809 43.2676 44.04 43.2831 37.2675V2.86758C43.2831 2.10791 42.9584 1.37691 42.3788 0.839359C41.7991 0.301864 41.0106 0 40.1913 0ZM26.7427 128.125C26.1631 128.684 25.3592 128.999 24.5168 128.999H18.7663C17.9238 128.999 17.1278 128.684 16.5403 128.125C15.9607 127.566 15.6438 126.806 15.6747 126.032L18.4494 51.6002H24.8414L27.6084 126.032C27.6393 126.806 27.3224 127.566 26.7427 128.125ZM37.0997 37.2666C37.0919 42.0108 32.9414 45.8594 27.8247 45.8665C24.7081 45.8737 24.8414 51.6002 24.8414 51.6002H18.4494C18.4494 51.6002 18.5748 45.8737 15.4582 45.8665C10.3416 45.8594 6.19102 42.0108 6.18327 37.2666V28.6666H37.0997V37.2666ZM83.4759 0.00153038C68.1181 0.0158637 55.666 11.5613 55.6528 25.7999V77.3998C55.6528 78.1595 55.9774 78.8905 56.5571 79.428C57.1368 79.9655 57.9251 80.2665 58.7445 80.2665H66.8291L65.1441 125.832C65.0591 128.161 65.9943 130.426 67.7488 132.103C69.4956 133.78 71.8993 134.733 74.419 134.733H77.2943C82.4109 134.726 86.5615 130.877 86.5692 126.133V2.86504C86.5692 2.10537 86.2446 1.37438 85.6649 0.83682C85.0852 0.299326 84.2952 0.00153038 83.4759 0.00153038ZM61.8327 25.7999C61.8482 15.8311 69.7396 7.37381 80.3826 5.94125V80.267H73.0167L72.141 74.5846L61.8327 74.5331V25.7999ZM77.2909 129H74.4156C73.5732 129 72.7771 128.684 72.1897 128.125C71.61 127.559 71.2931 126.807 71.324 126.033L73.0167 80.267H80.3826V126.133C80.3826 127.717 78.9991 129 77.2909 129Z" fill="white"/>
</svg>
