<svg width="140" height="140" viewBox="0 0 140 140" fill="none" xmlns="http://www.w3.org/2000/svg">
<path d="M62 77.5951C50.8693 81.0405 41.7343 78.3737 33.4132 75.9863C24.5544 73.4447 16.6227 71.2257 6.65151 75.0132L6.64718 125.341C6.64831 129.643 9.9356 132.856 13.6576 132.857H54.9895C58.7121 132.856 61.999 129.643 62 125.341V77.5951ZM132.857 136.179C132.857 133.417 132.533 130.799 131.949 128.29H96.1225C95.5384 130.799 95.2143 133.417 95.2143 136.179C95.2143 138.013 93.7272 139.5 91.8929 139.5C90.0585 139.5 88.5714 138.013 88.5714 136.179C88.5716 118.808 99.2158 106.392 109.516 95.2143C105.255 90.5903 100.938 85.7524 97.3377 80.4408C97.3237 80.4204 97.3081 80.401 97.2945 80.3803C92.2134 72.8678 88.5713 64.4066 88.5714 54.25C88.5714 52.4157 90.0585 50.9286 91.8929 50.9286C93.7272 50.9286 95.2143 52.4156 95.2143 54.25C95.2143 56.9755 95.5315 59.5604 96.1009 62.0389H131.971C132.54 59.5603 132.857 56.9755 132.857 54.25C132.857 52.4157 134.344 50.9286 136.179 50.9286C138.013 50.9286 139.5 52.4156 139.5 54.25C139.5 64.4075 135.854 72.8673 130.773 80.3803C130.759 80.4011 130.743 80.4204 130.729 80.4408C127.129 85.7524 122.812 90.5902 118.551 95.2143C126.172 103.484 133.981 112.431 137.528 123.563C137.661 123.846 137.756 124.148 137.805 124.467C138.881 128.12 139.5 132.006 139.5 136.179C139.5 138.013 138.013 139.5 136.179 139.5C134.344 139.5 132.857 138.013 132.857 136.179ZM102.22 114.658C100.735 116.927 99.4199 119.24 98.3541 121.647H129.717C128.651 119.239 127.336 116.927 125.851 114.658H102.22ZM114.036 100.127C111.611 102.772 109.278 105.381 107.129 108.016H120.942C118.793 105.381 116.46 102.772 114.036 100.127ZM106.688 81.881C108.955 84.6979 111.447 87.4741 114.036 90.297C116.624 87.474 119.116 84.6979 121.384 81.881H106.688ZM98.3151 68.6818C99.3058 70.9354 100.509 73.1091 101.87 75.2381H126.201C127.563 73.1091 128.766 70.9354 129.756 68.6818H98.3151ZM19.9286 31H48.7143V28.323H19.9286V31ZM62.0043 45.661C62.0041 45.0892 61.7973 44.569 61.468 44.1906L53.7656 37.6429H14.8859L7.20508 44.1776C6.86982 44.5571 6.65584 45.0831 6.65583 45.661V67.9898C17.7881 64.5431 26.925 67.2154 35.2469 69.603C44.1037 72.144 52.0322 74.3597 62 70.576L62.0043 45.661ZM61.9913 8.74037C61.9907 7.43062 61.019 6.64328 60.149 6.64286H53.078C52.7904 8.18406 51.4416 9.34973 49.8171 9.35017H18.8214C17.1964 9.35017 15.8438 8.1845 15.5562 6.64286H8.48954C7.6193 6.64285 6.64333 7.43005 6.64286 8.74037V19.5826C6.64364 20.8925 7.61946 21.6801 8.48954 21.6801H60.149C61.019 21.6796 61.9907 20.8924 61.9913 19.5826V8.74037ZM68.6342 19.5826C68.6336 24.2576 64.984 28.3225 60.149 28.323H55.3571V31.0303C56.0115 31.1036 56.633 31.3614 57.1389 31.7914L65.9658 39.2992L66.2167 39.5371L63.8207 41.8163L63.8121 41.8292L66.2167 39.5371C67.7902 41.1872 68.647 43.3923 68.6472 45.661L68.6429 125.341C68.6418 133.009 62.6773 139.499 54.9895 139.5H13.6576C6.21008 139.499 0.378878 133.407 0.0216239 126.054L0.00432478 125.336L0.0129743 45.661C0.0129986 43.3937 0.871887 41.1871 2.4435 39.5371C2.5227 39.454 2.60697 39.3737 2.69434 39.2992L11.5039 31.7914C12.009 31.3612 12.6321 31.1046 13.2857 31.0303V28.323H8.48954C3.65424 28.3229 0.000825695 24.2577 0 19.5826V8.74037C0.000501193 4.06497 3.654 -3.37849e-05 8.48954 2.10595e-10H60.149C64.984 0.000393455 68.6335 4.06538 68.6342 8.74037V19.5826Z" fill="white"/>
</svg>
