<svg width="131" height="131" viewBox="0 0 131 131" fill="none" xmlns="http://www.w3.org/2000/svg">
<path d="M40.3033 0.00990113C41.2735 0.0677967 42.5696 0.416778 43.4783 1.58881C44.367 2.73561 44.4149 4.06626 44.2673 5.03799C39.7278 34.8765 48.6646 56.8407 64.0826 69.9567C79.5689 83.1306 102.018 87.7442 125.163 81.963C126.149 81.7166 127.494 81.631 128.742 82.3765C130.048 83.1569 130.571 84.4362 130.738 85.4638C131.039 87.32 130.416 89.5419 129.578 91.5774C127.797 95.8996 124.078 101.642 118.78 107.357C108.173 118.801 90.6524 130.754 68.2157 130.881C30.4845 131.093 0.225064 100.022 0.00110495 62.0903C-0.123474 40.8645 10.3076 23.6208 20.4645 12.8715C25.5365 7.50374 30.6738 3.60901 34.6156 1.60761C36.474 0.664201 38.5209 -0.0961663 40.3033 0.00990113ZM37.227 6.75787C34.0335 8.37947 29.4134 11.8056 24.6587 16.8375C15.1588 26.8915 5.65982 42.7749 5.77332 62.0574C5.97925 96.9356 33.7717 125.299 68.1828 125.106C88.5156 124.991 104.623 114.137 114.548 103.429C119.516 98.0689 122.792 92.8989 124.242 89.3782C124.454 88.8649 124.607 88.4011 124.731 87.9967C100.697 93.4755 77.0403 88.5584 60.3441 74.3551C43.5403 60.0602 34.1993 36.7176 38.265 6.26916C37.9508 6.40162 37.6041 6.56641 37.227 6.75787ZM124.98 10.0802C126.19 10.0805 127.273 10.8377 127.69 11.9739C128.106 13.1102 127.767 14.3861 126.844 15.1693L98.6784 39.0974H126.332C127.926 39.0976 129.216 40.393 129.216 41.9874C129.215 43.5811 127.925 44.8724 126.332 44.8726H90.8161C89.6067 44.8726 88.5237 44.1191 88.1061 42.9836C87.689 41.8471 88.0243 40.567 88.9468 39.7835L117.118 15.8554H92.5069C90.9137 15.8554 89.624 14.564 89.6232 12.9701C89.6232 11.3756 90.9132 10.0802 92.5069 10.0802H124.98Z" fill="white"/>
</svg>
