<svg width="138" height="130" viewBox="0 0 138 130" fill="none" xmlns="http://www.w3.org/2000/svg">
<path d="M124.726 118.859C124.726 118.016 124.557 117.185 124.235 116.45L124.227 116.434L119.51 105.423L119.392 105.223C119.254 105.055 119.066 104.979 118.881 104.979C118.691 104.979 118.526 105.056 118.406 105.178L118.316 105.394L113.587 116.434C113.253 117.217 113.088 118.028 113.088 118.859V119.168C113.088 122.395 115.684 125.002 118.905 125.003C122.126 125.003 124.726 122.395 124.726 119.168V118.859ZM66.5076 10.832C66.5076 7.60459 63.908 4.99687 60.6866 4.99687C57.4651 4.99687 54.8655 7.60459 54.8655 10.832V16.7851L27.3232 13.3345C24.1529 13.3928 21.6122 15.9711 21.6117 19.1614C21.6117 22.3521 24.1527 24.926 27.3232 24.9843L60.1791 20.8664L60.4389 20.842L60.6866 20.8176L60.9342 20.842L61.194 20.8664L94.0459 24.9843C97.2183 24.9281 99.7614 22.3535 99.7614 19.1614C99.761 15.9698 97.218 13.3907 94.0459 13.3345L66.5076 16.7851V10.832ZM129.715 119.168C129.715 125.158 124.88 130 118.905 130C112.93 129.999 108.099 125.157 108.099 119.168V118.859C108.099 117.347 108.4 115.863 109 114.46L112.236 106.908H112.211L113.673 103.433C114.56 101.328 116.614 99.9781 118.881 99.9781C120.892 99.9781 122.666 101.031 123.683 102.66L124.068 103.392L128.802 114.44C129.415 115.84 129.715 117.359 129.715 118.859V119.168ZM4.98482 69.1505C4.98482 72.3779 7.58444 74.9856 10.8059 74.9856H38.1128L38.8597 76.0558C43.6604 82.9622 51.6636 87.4818 60.6866 87.4818C69.7096 87.4818 77.7127 82.9622 82.5134 76.0558L83.2603 74.9856H93.9403C99.9157 74.9856 104.746 79.8278 104.746 85.8176C104.747 89.0442 107.346 91.6486 110.567 91.6486H127.194C130.415 91.6486 133.014 89.0442 133.015 85.8176C133.015 64.1819 115.529 46.6564 93.9403 46.6564H84.5999L83.8733 45.9321L77.9467 40.0482L77.9386 40.0401C76.8417 38.9412 75.3688 38.3229 73.8306 38.3229H66.4792V26.6242L60.6581 25.8958L54.8412 26.6242V38.3229H47.4898C45.9513 38.3229 44.4787 38.9409 43.3818 40.0401L36.7773 46.6564H10.8059C7.58471 46.6564 4.98526 49.2605 4.98482 52.4875V69.1505ZM71.4924 11.1209L93.6318 8.34982L93.7861 8.32947H93.9403C99.9154 8.32947 104.746 13.172 104.746 19.1614C104.746 25.1512 99.9157 29.9934 93.9403 29.9934H93.7861L93.6318 29.9731L71.4681 27.1979V33.326H73.8306C76.7044 33.326 79.4382 34.4761 81.458 36.4959L86.6498 41.6555H93.9403C118.283 41.6555 138 61.4195 138 85.8176C137.999 91.8066 133.169 96.6496 127.194 96.6496H110.567C104.592 96.6496 99.7623 91.8066 99.7614 85.8176C99.7614 82.5902 97.1618 79.9825 93.9403 79.9825H85.8177C80.0569 87.5682 70.9308 92.4828 60.6866 92.4828C50.4423 92.4828 41.3162 87.5682 35.5554 79.9825H10.8059C4.83053 79.9825 0 75.1403 0 69.1505V52.4875C0.000440297 46.4981 4.8308 41.6555 10.8059 41.6555H34.7151L39.8542 36.504C41.8748 34.4789 44.6119 33.326 47.4898 33.326H49.8523V27.2061L27.7413 29.9731L27.587 29.9934H27.4328C21.4574 29.9934 16.6269 25.1512 16.6269 19.1614C16.6273 13.172 21.4577 8.32947 27.4328 8.32947H27.587L27.7413 8.34982L49.8807 11.1209V10.832C49.8807 4.84218 54.7112 0 60.6866 0C66.6619 0 71.4924 4.84218 71.4924 10.832V11.1209Z" fill="white"/>
</svg>
